<?xml version="1.0" encoding="UTF-8"?>
<svg id="Lager_1" data-name="Lager 1" xmlns="http://www.w3.org/2000/svg" viewBox="0 0 117.94 37.99">
  <g>
    <path d="M7.29,10.33L10.21,1.51h4.12v12.87h-2.83V4.7l-3.28,9.69h-2.12L2.81,4.68v9.71H.23V1.51h4.14l2.92,8.82Z"/>
    <path d="M25.51,12.41c-.76,1.44-1.91,2.18-4.14,2.18-2.9,0-4.88-1.96-4.88-4.83s1.96-5.02,4.75-5.02,4.41,1.84,4.41,4.9v.74h-6.39c.09,1.44.95,2.18,2.23,2.18.77,0,1.55-.32,1.85-.97l2.16.83ZM22.97,8.7c-.14-1.35-.65-1.93-1.75-1.93s-1.66.59-1.91,1.93h3.66Z"/>
    <path d="M33.64,12.89c-.61,1.12-1.57,1.69-2.84,1.69-2.36,0-3.85-1.91-3.85-4.92s1.51-4.93,3.85-4.93c1.3,0,2.21.52,2.84,1.62V.83h2.75v13.56h-2.75v-1.5ZM29.75,9.69c0,1.82.65,2.76,1.94,2.76s2.03-.99,2.03-2.76-.76-2.81-2.07-2.81c-1.22,0-1.91,1.01-1.91,2.81Z"/>
  </g>
  <g>
    <path d="M50.05,1.37v13.02h-2.79V5.08c-.9.47-2.34.74-3.64.74l-.29-1.62c2.03-.34,3.53-1.01,4.38-2.83h2.34Z"/>
    <path d="M63.28,7.94c0,1.85-.43,3.49-1.22,4.74-.77,1.22-2.09,1.91-3.6,1.91-3.01,0-4.86-2.56-4.86-6.72,0-1.75.45-3.48,1.22-4.65.79-1.22,2.09-1.91,3.62-1.91,2.97,0,4.84,2.57,4.84,6.63ZM56.5,8.01c0,2.74.72,4.36,1.94,4.36s1.94-1.6,1.94-4.41-.7-4.43-1.93-4.43-1.96,1.58-1.96,4.48Z"/>
  </g>
  <g>
    <path d="M74.76,14.39c-.09-.23-.18-.65-.25-1.12-.67.88-1.53,1.31-2.68,1.31-1.78,0-2.94-1.04-2.94-2.67,0-2.16,1.76-3.21,5.51-3.24v-.25c0-1.04-.45-1.48-1.51-1.48-.9,0-1.71.27-2.66.92l-1.17-1.76c1.22-.95,2.5-1.37,4.23-1.37,1.48,0,2.5.38,3.17,1.17.52.63.72,1.35.72,2.57v4.27c0,.61.09,1.1.25,1.53v.11h-2.67ZM75.34,1.94c0,1.1-.88,1.96-2.03,1.96s-2.05-.85-2.05-1.96.88-1.94,2.07-1.94,2.02.85,2.02,1.94ZM74.42,10.33c-1.98.04-2.83.43-2.83,1.33,0,.59.41.95,1.12.95,1.03,0,1.71-.59,1.71-1.46v-.83ZM72.55,1.96c0,.43.31.76.76.76s.74-.32.74-.76-.31-.77-.76-.77-.74.32-.74.77Z"/>
    <path d="M82.41,4.97v1.6c.61-1.24,1.37-1.8,2.43-1.8.52,0,.94.11,1.37.38l-.68,2.48c-.4-.23-.68-.32-1.13-.32-1.21,0-1.98.9-1.98,2.34v4.74h-2.75V4.97h2.75Z"/>
    <path d="M93.5,7.47c-.88-.43-1.73-.7-2.65-.7-.85,0-1.22.23-1.22.74,0,.56.32.72,1.85,1.01,1.08.18,1.66.36,2.18.68.83.49,1.22,1.24,1.22,2.27,0,1.98-1.51,3.12-4.14,3.12-1.82,0-2.99-.38-4.12-1.35l1.28-1.78c.86.79,1.66,1.1,2.77,1.1,1.01,0,1.55-.31,1.55-.9,0-.27-.11-.45-.34-.58-.25-.13-.34-.16-1.66-.41-2.2-.41-3.17-1.31-3.17-2.95,0-1.85,1.42-2.97,3.84-2.97,1.51,0,2.59.29,3.69.94l-1.08,1.8Z"/>
  </g>
  <g>
    <path d="M2.75,26.37c.65-1.1,1.53-1.64,2.72-1.64s1.96.5,2.5,1.57c.85-1.1,1.73-1.57,2.92-1.57,1.87,0,2.95,1.31,2.95,3.56v6.09h-2.75v-5.83c0-1.12-.43-1.67-1.26-1.67-.94,0-1.53.7-1.53,1.84v5.67h-2.75v-5.87c0-1.08-.43-1.64-1.28-1.64-.94,0-1.51.68-1.51,1.8v5.71H0v-9.42h2.75v1.4Z"/>
    <path d="M25.33,29.63c0,2.92-2,4.95-4.83,4.95s-4.81-2-4.81-4.86,2-4.99,4.88-4.99,4.75,2.05,4.75,4.9ZM18.5,29.65c0,1.8.7,2.79,2,2.79s2.02-.99,2.02-2.79-.7-2.77-2.03-2.77c-1.26,0-1.98,1.01-1.98,2.77Z"/>
    <path d="M27.74,24.97v-1.89l2.75-.95v2.84h1.98v2.14h-1.98v4.16c0,.7.25,1.03.79,1.03.32,0,.61-.09.95-.29l.67,1.84c-.65.5-1.35.74-2.25.74-1.85,0-2.92-1.08-2.92-2.97v-4.5h-1.3v-2.14h1.3Z"/>
  </g>
  <g>
    <path d="M43.19,29.63c0,2.92-2,4.95-4.83,4.95s-4.81-2-4.81-4.86,2-4.99,4.88-4.99,4.75,2.05,4.75,4.9ZM36.37,29.65c0,1.8.7,2.79,2,2.79s2.02-.99,2.02-2.79-.7-2.77-2.03-2.77c-1.26,0-1.98,1.01-1.98,2.77Z"/>
    <path d="M47.88,24.97v1.6c.61-1.24,1.37-1.8,2.43-1.8.52,0,.94.11,1.37.38l-.68,2.48c-.4-.23-.68-.32-1.13-.32-1.21,0-1.98.9-1.98,2.34v4.74h-2.75v-9.42h2.75Z"/>
    <path d="M60.16,26.86c.16.47.22.74.22,1.12,0,1.78-1.57,2.99-3.92,2.99-.63,0-1.13-.07-1.71-.25-.25.18-.38.4-.38.65,0,.5.32.68,1.28.68h2.38c2.18,0,3.38.92,3.38,2.61,0,2.12-1.85,3.33-5.1,3.33-2.81,0-4.47-.88-4.47-2.41,0-.77.49-1.35,1.53-1.8-.72-.43-1.06-.99-1.06-1.71,0-.83.43-1.44,1.33-1.91-.77-.61-1.13-1.31-1.13-2.23,0-1.85,1.64-3.19,3.89-3.19.88,0,1.62.2,2.43.63l2.54-.58v2.07h-1.21ZM55.45,34.26c-.34,0-.47,0-.63-.04-.4.27-.58.54-.58.92,0,.74.67,1.06,2.14,1.06,1.67,0,2.54-.4,2.54-1.19,0-.52-.38-.76-1.3-.76h-2.18ZM55,27.92c0,.92.56,1.48,1.46,1.48s1.42-.56,1.42-1.48-.52-1.46-1.46-1.46c-.88,0-1.42.56-1.42,1.46Z"/>
    <path d="M68.33,34.39c-.09-.23-.18-.65-.25-1.12-.67.88-1.53,1.31-2.68,1.31-1.78,0-2.94-1.04-2.94-2.67,0-2.16,1.76-3.21,5.51-3.24v-.25c0-1.04-.45-1.48-1.51-1.48-.9,0-1.71.27-2.66.92l-1.17-1.76c1.22-.95,2.5-1.37,4.23-1.37,1.48,0,2.5.38,3.17,1.17.52.63.72,1.35.72,2.57v4.27c0,.61.09,1.1.25,1.53v.11h-2.67ZM67.99,30.34c-1.98.04-2.83.43-2.83,1.33,0,.59.41.95,1.12.95,1.03,0,1.71-.59,1.71-1.46v-.83Z"/>
    <path d="M75.89,24.97v1.6c.61-1.24,1.37-1.8,2.43-1.8.52,0,.94.11,1.37.38l-.68,2.48c-.4-.23-.68-.32-1.13-.32-1.21,0-1.98.9-1.98,2.34v4.74h-2.75v-9.42h2.75Z"/>
  </g>
  <g>
    <path d="M86.31,34.39c-.09-.23-.18-.65-.25-1.12-.67.88-1.53,1.31-2.68,1.31-1.78,0-2.94-1.04-2.94-2.67,0-2.16,1.76-3.21,5.51-3.24v-.25c0-1.04-.45-1.48-1.51-1.48-.9,0-1.71.27-2.66.92l-1.17-1.76c1.22-.95,2.5-1.37,4.23-1.37,1.48,0,2.5.38,3.17,1.17.52.63.72,1.35.72,2.57v4.27c0,.61.09,1.1.25,1.53v.11h-2.67ZM85.97,30.34c-1.98.04-2.83.43-2.83,1.33,0,.59.41.95,1.12.95,1.03,0,1.71-.59,1.71-1.46v-.83Z"/>
    <path d="M93.87,24.97v1.48c.63-1.15,1.58-1.71,2.92-1.71,1.89,0,2.97,1.3,2.97,3.56v6.09h-2.75v-5.73c0-1.22-.45-1.78-1.42-1.78-1.08,0-1.71.72-1.71,1.96v5.55h-2.75v-9.42h2.75Z"/>
    <path d="M102.65,24.97v-1.89l2.75-.95v2.84h1.98v2.14h-1.98v4.16c0,.7.25,1.03.79,1.03.32,0,.61-.09.95-.29l.67,1.84c-.65.5-1.35.74-2.25.74-1.85,0-2.92-1.08-2.92-2.97v-4.5h-1.3v-2.14h1.3Z"/>
    <path d="M112.43,22.04c0,.85-.7,1.53-1.6,1.53s-1.58-.67-1.58-1.53.7-1.51,1.6-1.51,1.58.68,1.58,1.51ZM112.21,24.97v9.42h-2.75v-9.42h2.75Z"/>
    <path d="M117.94,32.87c0,.94-.76,1.69-1.69,1.69s-1.69-.74-1.69-1.69.76-1.69,1.71-1.69,1.67.77,1.67,1.69Z"/>
  </g>
</svg>