<?xml version="1.0" encoding="UTF-8"?>
<svg id="Lager_1" data-name="Lager 1" xmlns="http://www.w3.org/2000/svg" viewBox="0 0 222.26 37.07">
  <g>
    <path d="M6.14.68c2.74,0,4.21,1.19,4.21,3.4,0,1.39-.5,2.16-1.82,2.77,1.64.56,2.3,1.46,2.3,3.08,0,2.36-1.57,3.62-4.5,3.62H.32V.68h5.82ZM5.98,5.89c1.08,0,1.58-.49,1.58-1.51s-.54-1.49-1.71-1.49h-2.7v3.01h2.83ZM6.12,11.36c1.21,0,1.87-.61,1.87-1.73s-.68-1.69-1.98-1.69h-2.86v3.42h2.97Z"/>
    <path d="M21.8,8.8c0,2.92-2,4.95-4.83,4.95s-4.81-2-4.81-4.86,2-4.99,4.88-4.99,4.75,2.05,4.75,4.9ZM14.98,8.82c0,1.8.7,2.79,2,2.79s2.02-.99,2.02-2.79-.7-2.77-2.03-2.77c-1.26,0-1.98,1.01-1.98,2.77Z"/>
    <path d="M29.77,6.64c-.88-.43-1.73-.7-2.65-.7-.85,0-1.22.23-1.22.74,0,.56.32.72,1.85,1.01,1.08.18,1.66.36,2.18.68.83.49,1.22,1.24,1.22,2.27,0,1.98-1.51,3.12-4.14,3.12-1.82,0-2.99-.38-4.12-1.35l1.28-1.78c.86.79,1.66,1.1,2.77,1.1,1.01,0,1.55-.31,1.55-.9,0-.27-.11-.45-.34-.58-.25-.13-.34-.16-1.66-.41-2.2-.41-3.17-1.31-3.17-2.95,0-1.85,1.42-2.97,3.84-2.97,1.51,0,2.59.29,3.69.94l-1.08,1.8Z"/>
    <path d="M41.24,11.43c-.7,1.51-1.94,2.32-3.93,2.32-3.01,0-4.84-1.91-4.84-4.84s1.87-5.01,4.65-5.01c1.8,0,3.04.65,3.89,1.93l-2.27,1.33c-.31-.72-.76-1.12-1.53-1.12-1.24,0-1.93.99-1.93,2.79s.68,2.77,2.02,2.77c.9,0,1.35-.36,1.69-1.24l2.25,1.06Z"/>
    <path d="M45.56,0v5.62c.63-1.15,1.58-1.71,2.92-1.71,1.89,0,2.97,1.3,2.97,3.56v6.09h-2.75v-5.73c0-1.22-.45-1.78-1.4-1.78-1.1,0-1.73.72-1.73,1.96v5.55h-2.75V0h2.75Z"/>
  </g>
  <path d="M60.98,4.14v1.6c.61-1.24,1.37-1.8,2.43-1.8.52,0,.94.11,1.37.38l-.68,2.48c-.4-.23-.68-.32-1.13-.32-1.21,0-1.98.9-1.98,2.34v4.74h-2.75V4.14h2.75Z"/>
  <g>
    <path d="M74.88,8.8c0,2.92-2,4.95-4.83,4.95s-4.81-2-4.81-4.86,2-4.99,4.88-4.99,4.75,2.05,4.75,4.9ZM68.06,8.82c0,1.8.7,2.79,2,2.79s2.02-.99,2.02-2.79-.7-2.77-2.03-2.77c-1.26,0-1.98,1.01-1.98,2.77Z"/>
    <path d="M79.58,5.56c.72-1.12,1.64-1.66,2.88-1.66,2.29,0,3.83,1.96,3.83,4.92s-1.49,4.93-3.89,4.93c-1.26,0-2.23-.56-2.83-1.66v1.46h-2.75V0h2.75v5.56ZM79.5,8.86c0,1.76.72,2.75,2.02,2.75s1.96-.92,1.96-2.74-.68-2.83-1.98-2.83-2,1.04-2,2.81Z"/>
    <path d="M97.29,8.8c0,2.92-2,4.95-4.83,4.95s-4.81-2-4.81-4.86,2-4.99,4.88-4.99,4.75,2.05,4.75,4.9ZM90.47,8.82c0,1.8.7,2.79,2,2.79s2.02-.99,2.02-2.79-.7-2.77-2.04-2.77c-1.26,0-1.98,1.01-1.98,2.77Z"/>
    <path d="M99.7,4.14v-1.89l2.75-.95v2.84h1.98v2.14h-1.98v4.16c0,.7.25,1.03.79,1.03.32,0,.61-.09.95-.29l.67,1.84c-.65.5-1.35.74-2.25.74-1.85,0-2.92-1.08-2.92-2.97v-4.5h-1.3v-2.14h1.3Z"/>
    <path d="M112.57,12.06c-.61,1.12-1.57,1.69-2.84,1.69-2.36,0-3.85-1.91-3.85-4.92s1.51-4.93,3.85-4.93c1.3,0,2.21.52,2.84,1.62V0h2.75v13.56h-2.75v-1.49ZM108.68,8.86c0,1.82.65,2.75,1.94,2.75s2.03-.99,2.03-2.75-.76-2.81-2.07-2.81c-1.22,0-1.91,1.01-1.91,2.81Z"/>
    <path d="M123.1,13.56c-.09-.23-.18-.65-.25-1.12-.67.88-1.53,1.31-2.68,1.31-1.78,0-2.93-1.04-2.93-2.67,0-2.16,1.76-3.21,5.51-3.24v-.25c0-1.04-.45-1.48-1.51-1.48-.9,0-1.71.27-2.67.92l-1.17-1.76c1.22-.95,2.5-1.37,4.23-1.37,1.48,0,2.5.38,3.17,1.17.52.63.72,1.35.72,2.57v4.27c0,.61.09,1.1.25,1.53v.11h-2.67ZM122.76,9.51c-1.98.04-2.83.43-2.83,1.33,0,.59.41.95,1.12.95,1.03,0,1.71-.59,1.71-1.46v-.83Z"/>
    <path d="M130.66,5.55c.65-1.1,1.53-1.64,2.72-1.64s1.96.5,2.5,1.57c.85-1.1,1.73-1.57,2.92-1.57,1.87,0,2.95,1.31,2.95,3.56v6.09h-2.75v-5.83c0-1.12-.43-1.67-1.26-1.67-.94,0-1.53.7-1.53,1.84v5.67h-2.75v-5.87c0-1.08-.43-1.64-1.28-1.64-.94,0-1.51.68-1.51,1.8v5.71h-2.75V4.14h2.75v1.4Z"/>
    <path d="M146.93,5.55c.65-1.1,1.53-1.64,2.72-1.64s1.96.5,2.5,1.57c.85-1.1,1.73-1.57,2.92-1.57,1.87,0,2.95,1.31,2.95,3.56v6.09h-2.75v-5.83c0-1.12-.43-1.67-1.26-1.67-.94,0-1.53.7-1.53,1.84v5.67h-2.75v-5.87c0-1.08-.43-1.64-1.28-1.64-.94,0-1.51.68-1.51,1.8v5.71h-2.75V4.14h2.75v1.4Z"/>
    <path d="M166.48,6.64c-.88-.43-1.73-.7-2.65-.7-.85,0-1.22.23-1.22.74,0,.56.32.72,1.85,1.01,1.08.18,1.66.36,2.18.68.83.49,1.22,1.24,1.22,2.27,0,1.98-1.51,3.12-4.14,3.12-1.82,0-2.99-.38-4.12-1.35l1.28-1.78c.86.79,1.66,1.1,2.77,1.1,1.01,0,1.55-.31,1.55-.9,0-.27-.11-.45-.34-.58-.25-.13-.34-.16-1.66-.41-2.2-.41-3.17-1.31-3.17-2.95,0-1.85,1.42-2.97,3.83-2.97,1.51,0,2.59.29,3.69.94l-1.08,1.8Z"/>
    <path d="M175.41,12.12c-.61,1.13-1.49,1.64-2.81,1.64-1.85,0-2.92-1.3-2.92-3.57v-6.05h2.75v5.73c0,1.19.4,1.73,1.28,1.73,1.06,0,1.69-.72,1.69-1.93v-5.53h2.75v9.42h-2.75v-1.44Z"/>
    <path d="M187.97,6.03c.16.47.22.74.22,1.12,0,1.78-1.57,2.99-3.93,2.99-.63,0-1.13-.07-1.71-.25-.25.18-.38.4-.38.65,0,.5.32.68,1.28.68h2.38c2.18,0,3.39.92,3.39,2.61,0,2.12-1.85,3.33-5.1,3.33-2.81,0-4.47-.88-4.47-2.41,0-.77.49-1.35,1.53-1.8-.72-.43-1.06-.99-1.06-1.71,0-.83.43-1.44,1.33-1.91-.77-.61-1.13-1.31-1.13-2.23,0-1.85,1.64-3.19,3.89-3.19.88,0,1.62.2,2.43.63l2.54-.58v2.07h-1.21ZM183.26,13.43c-.34,0-.47,0-.63-.04-.4.27-.58.54-.58.92,0,.74.67,1.06,2.14,1.06,1.67,0,2.54-.4,2.54-1.19,0-.52-.38-.76-1.3-.76h-2.18ZM182.81,7.09c0,.92.56,1.48,1.46,1.48s1.42-.56,1.42-1.48-.52-1.46-1.46-1.46c-.88,0-1.42.56-1.42,1.46Z"/>
    <path d="M196.14,13.56c-.09-.23-.18-.65-.25-1.12-.67.88-1.53,1.31-2.68,1.31-1.78,0-2.93-1.04-2.93-2.67,0-2.16,1.76-3.21,5.51-3.24v-.25c0-1.04-.45-1.48-1.51-1.48-.9,0-1.71.27-2.67.92l-1.17-1.76c1.22-.95,2.5-1.37,4.23-1.37,1.48,0,2.5.38,3.17,1.17.52.63.72,1.35.72,2.57v4.27c0,.61.09,1.1.25,1.53v.11h-2.67ZM195.8,9.51c-1.98.04-2.83.43-2.83,1.33,0,.59.41.95,1.12.95,1.03,0,1.71-.59,1.71-1.46v-.83Z"/>
    <path d="M203.7,4.14v1.6c.61-1.24,1.37-1.8,2.43-1.8.52,0,.94.11,1.37.38l-.68,2.48c-.4-.23-.68-.32-1.13-.32-1.21,0-1.98.9-1.98,2.34v4.74h-2.75V4.14h2.75Z"/>
    <path d="M217.12,11.58c-.76,1.44-1.91,2.18-4.14,2.18-2.9,0-4.88-1.96-4.88-4.83s1.96-5.02,4.75-5.02,4.41,1.84,4.41,4.9v.74h-6.39c.09,1.44.95,2.18,2.23,2.18.77,0,1.55-.32,1.85-.97l2.16.83ZM214.58,7.87c-.14-1.35-.65-1.93-1.75-1.93s-1.66.59-1.91,1.93h3.66Z"/>
    <path d="M222.26,12.05c0,.94-.76,1.69-1.69,1.69s-1.69-.74-1.69-1.69.76-1.69,1.71-1.69,1.67.77,1.67,1.69Z"/>
  </g>
  <g>
    <path d="M7.62,23.46c-.63-1.39-1.48-1.69-3.08-1.69s-2.63.77-2.63,2.07c0,.74.27,1.21.88,1.57.5.29.88.41,2.23.72,1.62.36,2.48.7,3.17,1.24.77.63,1.19,1.53,1.19,2.63,0,2.27-1.76,3.73-4.52,3.73-2.43,0-4.16-.9-4.86-2.9l1.33-.54c.52,1.64,1.67,2.2,3.53,2.2s3.06-.94,3.06-2.45c0-.63-.22-1.15-.63-1.51-.5-.43-1.04-.63-2.86-1.08-1.48-.36-2.25-.67-2.9-1.15-.7-.52-1.08-1.35-1.08-2.34,0-2.11,1.57-3.42,4.07-3.42,2.14,0,3.53.56,4.32,2.3l-1.22.63Z"/>
    <path d="M12.47,24.14v-2.45l1.49-.36v2.81h2.38v1.24h-2.38v5.74c0,.92.34,1.35,1.08,1.35.49,0,.85-.13,1.28-.45l.58,1.03c-.63.49-1.17.67-1.94.67-1.53,0-2.48-.88-2.48-2.3v-6.03h-1.44v-1.24h1.44Z"/>
  </g>
  <g>
    <path d="M26.59,33.61c-.2.02-.38.02-.52.02-1.01,0-1.66-.45-1.94-1.35-.83.99-1.73,1.44-2.9,1.44-1.75,0-2.97-1.08-2.97-2.59,0-1.39.92-2.38,2.59-2.83.88-.23,1.57-.31,3.19-.36v-.59c0-1.46-.58-2.12-1.85-2.12-.99,0-1.73.32-2.7,1.17l-.88-.97c1.13-1.03,2.16-1.44,3.58-1.44,2.16,0,3.35,1.19,3.35,3.37v4.2c0,.67.25.88,1.06.9v1.17ZM24.03,29c-3.02.11-4.29.7-4.29,2.05,0,.94.61,1.46,1.73,1.46,1.49,0,2.56-.86,2.56-2.07v-1.44Z"/>
    <path d="M30.44,24.14v1.51c.61-1.13,1.42-1.67,2.52-1.67.58,0,1.03.11,1.53.38l-.61,1.26c-.41-.22-.67-.29-1.1-.29-1.46,0-2.34,1.17-2.34,3.06v5.17h-1.49v-9.42h1.49Z"/>
    <path d="M37.79,30.61v2.95h-1.49v-13.56h1.49v8.66l3.83-4.52h1.76l-3.21,3.69,3.67,5.73h-1.69l-2.95-4.59-1.42,1.64Z"/>
    <path d="M48.32,32.5c0,.63-.52,1.15-1.15,1.15s-1.15-.5-1.15-1.15.5-1.15,1.15-1.15,1.15.52,1.15,1.15Z"/>
  </g>
  <path d="M60.55,20.68c1.62,0,2.61.29,3.37.97.74.65,1.12,1.6,1.12,2.79,0,2.34-1.51,3.65-4.2,3.65h-3.37v5.46h-1.49v-12.87h4.57ZM60.66,26.9c1.06,0,1.67-.18,2.16-.65.45-.43.68-1.06.68-1.87,0-1.67-.88-2.45-2.75-2.45h-3.28v4.97h3.19Z"/>
  <g>
    <path d="M75.24,33.61c-.2.02-.38.02-.52.02-1.01,0-1.66-.45-1.94-1.35-.83.99-1.73,1.44-2.9,1.44-1.75,0-2.97-1.08-2.97-2.59,0-1.39.92-2.38,2.59-2.83.88-.23,1.57-.31,3.19-.36v-.59c0-1.46-.58-2.12-1.85-2.12-.99,0-1.73.32-2.7,1.17l-.88-.97c1.13-1.03,2.16-1.44,3.58-1.44,2.16,0,3.35,1.19,3.35,3.37v4.2c0,.67.25.88,1.06.9v1.17ZM72.68,29c-3.02.11-4.29.7-4.29,2.05,0,.94.61,1.46,1.73,1.46,1.49,0,2.56-.86,2.56-2.07v-1.44ZM72.77,21.1c0,1.03-.85,1.87-1.91,1.87s-1.91-.83-1.91-1.87.85-1.87,1.93-1.87,1.89.85,1.89,1.87ZM69.86,21.1c0,.58.43,1.01,1.01,1.01s1.01-.43,1.01-1.01-.43-1.01-1.01-1.01-1.01.43-1.01,1.01Z"/>
    <path d="M81.41,33.27c-.45.27-.92.43-1.66.43-1.37,0-2.29-.61-2.29-2.49v-11.22h1.5v11.34c0,.88.47,1.12,1.03,1.12.43,0,.7-.13.94-.31l.49,1.12Z"/>
    <path d="M84.78,21.21c0,.54-.45.99-.99.99s-.99-.45-.99-.99.45-.99.99-.99.99.45.99.99ZM84.56,24.14v9.42h-1.5v-9.42h1.5Z"/>
    <path d="M88.38,24.14v-2.45l1.49-.36v2.81h2.38v1.24h-2.38v5.74c0,.92.34,1.35,1.08,1.35.49,0,.85-.13,1.28-.45l.58,1.03c-.63.49-1.17.67-1.95.67-1.53,0-2.48-.88-2.48-2.3v-6.03h-1.44v-1.24h1.44Z"/>
    <path d="M98.91,33.27c-.45.27-.92.43-1.66.43-1.37,0-2.29-.61-2.29-2.49v-11.22h1.49v11.34c0,.88.47,1.12,1.03,1.12.43,0,.7-.13.94-.31l.49,1.12Z"/>
    <path d="M102.27,21.21c0,.54-.45.99-.99.99s-.99-.45-.99-.99.45-.99.99-.99.99.45.99.99ZM102.06,24.14v9.42h-1.49v-9.42h1.49Z"/>
  </g>
  <g>
    <path d="M109.72,31.51c2.12,0,3.31.92,3.31,2.54,0,1.85-1.71,3.02-4.45,3.02-2.54,0-4.16-1.01-4.16-2.59,0-.85.52-1.51,1.6-2.02-.63-.34-.92-.83-.92-1.51s.32-1.19,1.03-1.6c-.77-.63-1.15-1.37-1.15-2.3,0-1.82,1.4-3.06,3.46-3.06.7,0,1.22.11,1.87.4l2.7-.38v1.35h-1.41c.43.56.61,1.1.61,1.8,0,1.85-1.37,2.99-3.56,2.99-.65,0-1.15-.09-1.71-.32-.34.29-.49.54-.49.88,0,.61.34.81,1.39.81h1.87ZM107.67,32.8c-.14,0-.45-.02-.59-.04-.83.41-1.19.9-1.19,1.57,0,1.03.92,1.55,2.74,1.55,1.94,0,2.95-.61,2.95-1.76,0-.88-.63-1.31-1.87-1.31h-2.04ZM106.48,27.04c0,1.17.83,1.91,2.18,1.91s2.07-.67,2.07-1.87-.83-1.91-2.14-1.91-2.11.7-2.11,1.87Z"/>
    <path d="M117.5,32.5c0,.63-.52,1.15-1.15,1.15s-1.15-.5-1.15-1.15.5-1.15,1.15-1.15,1.15.52,1.15,1.15Z"/>
  </g>
  <g>
    <path d="M134.66,31.2c-1.06,1.76-2.3,2.52-4.14,2.52-3.35,0-5.71-2.72-5.71-6.59s2.39-6.64,5.87-6.64c1.46,0,2.7.41,3.49,1.17.58.54.9,1.03,1.28,1.85l-1.3.5c-.29-.67-.54-1.06-.9-1.42-.59-.58-1.48-.86-2.54-.86-2.67,0-4.32,2.09-4.32,5.4s1.62,5.35,4.18,5.35c2.23,0,3.89-1.76,3.89-4.14v-.18h-3.49v-1.24h4.95v6.64h-.97l-.29-2.36Z"/>
    <path d="M147.39,28.84c0,2.84-1.85,4.88-4.47,4.88s-4.43-2.05-4.43-4.86,1.85-4.88,4.48-4.88,4.41,2.05,4.41,4.86ZM140.04,28.88c0,2.21,1.12,3.6,2.88,3.6s2.92-1.4,2.92-3.62-1.13-3.64-2.86-3.64c-1.82,0-2.94,1.37-2.94,3.66ZM142.26,21.15c0,.54-.49,1.01-1.03,1.01s-1.01-.47-1.01-1.01.49-1.01,1.01-1.01,1.03.47,1.03,1.01ZM145.62,21.15c0,.54-.49,1.01-1.01,1.01s-1.03-.47-1.03-1.01.49-1.01,1.03-1.01,1.01.47,1.01,1.01Z"/>
    <path d="M151.62,24.14v1.51c.61-1.13,1.42-1.67,2.52-1.67.58,0,1.03.11,1.53.38l-.61,1.26c-.41-.22-.67-.29-1.1-.29-1.46,0-2.34,1.17-2.34,3.06v5.17h-1.49v-9.42h1.49Z"/>
  </g>
  <g>
    <path d="M163.35,34.39c0,1.69-.86,2.59-2.45,2.59-.49,0-.79-.07-1.21-.29l.34-1.13c.36.16.45.18.7.18.74,0,1.12-.4,1.12-1.19v-10.41h1.49v10.25ZM163.56,21.21c0,.54-.45.99-.99.99s-.99-.45-.99-.99.45-.99.99-.99.99.45.99.99Z"/>
    <path d="M174.99,28.84c0,2.84-1.85,4.88-4.47,4.88s-4.43-2.05-4.43-4.86,1.85-4.88,4.48-4.88,4.41,2.05,4.41,4.86ZM167.65,28.88c0,2.21,1.12,3.6,2.88,3.6s2.92-1.4,2.92-3.62-1.13-3.64-2.86-3.64c-1.82,0-2.94,1.37-2.94,3.66Z"/>
    <path d="M179.22,25.69c.72-1.12,1.8-1.71,3.13-1.71,2.41,0,4.02,1.91,4.02,4.83s-1.58,4.92-4.03,4.92c-1.35,0-2.43-.58-3.12-1.67v1.51h-1.49v-13.56h1.49v5.69ZM179.17,28.86c0,2.3,1.06,3.62,2.92,3.62s2.74-1.19,2.74-3.58-1.01-3.67-2.72-3.67c-1.84,0-2.93,1.37-2.93,3.64Z"/>
    <path d="M190.6,25.69c.72-1.12,1.8-1.71,3.13-1.71,2.41,0,4.01,1.91,4.01,4.83s-1.58,4.92-4.03,4.92c-1.35,0-2.43-.58-3.12-1.67v1.51h-1.49v-13.56h1.49v5.69ZM190.54,28.86c0,2.3,1.06,3.62,2.92,3.62s2.74-1.19,2.74-3.58-1.01-3.67-2.72-3.67c-1.84,0-2.93,1.37-2.93,3.64Z"/>
    <path d="M207.93,32.06c-.86,1.24-2.07,1.66-3.58,1.66-2.99,0-4.66-1.96-4.66-4.84s1.75-4.9,4.29-4.9,4.03,1.76,4.03,4.68v.49h-6.77c.04,1.35.34,2.11.99,2.7.49.43,1.12.63,2.09.63,1.04,0,1.8-.29,2.52-1.3l1.1.88ZM206.48,27.94c-.2-1.93-.92-2.72-2.49-2.72s-2.36.88-2.7,2.72h5.19Z"/>
  </g>
  <g>
    <path d="M210.74,24.14v-2.45l1.49-.36v2.81h2.38v1.24h-2.38v5.74c0,.92.34,1.35,1.08,1.35.49,0,.85-.13,1.28-.45l.58,1.03c-.63.49-1.17.67-1.94.67-1.53,0-2.48-.88-2.48-2.3v-6.03h-1.44v-1.24h1.44Z"/>
    <path d="M219.54,32.5c0,.63-.52,1.15-1.15,1.15s-1.15-.5-1.15-1.15.5-1.15,1.15-1.15,1.15.52,1.15,1.15Z"/>
  </g>
</svg>