<?xml version="1.0" encoding="UTF-8"?>
<svg id="Lager_1" data-name="Lager 1" xmlns="http://www.w3.org/2000/svg" viewBox="0 0 330.97 41.06">
  <g>
    <path d="M2.76,10.68c.6,1.46,1.56,2.08,3.16,2.08s2.56-.66,2.56-1.76c0-.96-.52-1.34-2.6-1.82-2.26-.52-2.96-.76-3.62-1.18-1.1-.7-1.62-1.68-1.62-3.06C.64,2.22,2.56.56,5.92.56c2.22,0,4,.8,5.32,2.56l-2.6,1.44c-.84-1.16-1.7-1.48-2.7-1.48-1.5,0-2.24.56-2.24,1.54,0,.9.62,1.32,2.48,1.68,1.94.4,2.98.74,3.76,1.22,1.12.74,1.66,1.78,1.66,3.28,0,2.88-2.02,4.48-5.64,4.48-3,0-4.84-1.06-5.96-3.42l2.76-1.18Z"/>
    <path d="M16.96,4.6v1.58c.8-1.24,1.82-1.84,3.2-1.84,2.56,0,4.26,2.18,4.26,5.46s-1.68,5.48-4.28,5.48c-1.42,0-2.5-.6-3.18-1.78v5.2h-3.06V4.6h3.06ZM16.88,9.84c0,1.96.8,3.06,2.24,3.06s2.18-1.02,2.18-3.04-.76-3.14-2.2-3.14-2.22,1.16-2.22,3.12Z"/>
    <path d="M36.64,9.78c0,3.24-2.22,5.5-5.36,5.5s-5.34-2.22-5.34-5.4,2.22-5.54,5.42-5.54,5.28,2.28,5.28,5.44ZM29.06,9.8c0,2,.78,3.1,2.22,3.1s2.24-1.1,2.24-3.1-.78-3.08-2.26-3.08c-1.4,0-2.2,1.12-2.2,3.08Z"/>
    <path d="M39.32,4.6v-2.1l3.06-1.06v3.16h2.2v2.38h-2.2v4.62c0,.78.28,1.14.88,1.14.36,0,.68-.1,1.06-.32l.74,2.04c-.72.56-1.5.82-2.5.82-2.06,0-3.24-1.2-3.24-3.3v-5h-1.44v-2.38h1.44Z"/>
    <path d="M52.82,14.68c-.56.5-1.74.66-2.76.66-2.16,0-3.24-.88-3.24-3.42V0h3.06v11.98c0,.68.34.98.92.98.34,0,.76-.1,1.22-.5l.8,2.22Z"/>
    <path d="M63.3,12.86c-.84,1.6-2.12,2.42-4.6,2.42-3.22,0-5.42-2.18-5.42-5.36s2.18-5.58,5.28-5.58,4.9,2.04,4.9,5.44v.82h-7.1c.1,1.6,1.06,2.42,2.48,2.42.86,0,1.72-.36,2.06-1.08l2.4.92ZM60.48,8.74c-.16-1.5-.72-2.14-1.94-2.14s-1.84.66-2.12,2.14h4.06Z"/>
    <path d="M72.24,7.38c-.98-.48-1.92-.78-2.94-.78-.94,0-1.36.26-1.36.82,0,.62.36.8,2.06,1.12,1.2.2,1.84.4,2.42.76.92.54,1.36,1.38,1.36,2.52,0,2.2-1.68,3.46-4.6,3.46-2.02,0-3.32-.42-4.58-1.5l1.42-1.98c.96.88,1.84,1.22,3.08,1.22,1.12,0,1.72-.34,1.72-1,0-.3-.12-.5-.38-.64-.28-.14-.38-.18-1.84-.46-2.44-.46-3.52-1.46-3.52-3.28,0-2.06,1.58-3.3,4.26-3.3,1.68,0,2.88.32,4.1,1.04l-1.2,2Z"/>
    <path d="M82.58,7.38c-.98-.48-1.92-.78-2.94-.78-.94,0-1.36.26-1.36.82,0,.62.36.8,2.06,1.12,1.2.2,1.84.4,2.42.76.92.54,1.36,1.38,1.36,2.52,0,2.2-1.68,3.46-4.6,3.46-2.02,0-3.32-.42-4.58-1.5l1.42-1.98c.96.88,1.84,1.22,3.08,1.22,1.12,0,1.72-.34,1.72-1,0-.3-.12-.5-.38-.64-.28-.14-.38-.18-1.84-.46-2.44-.46-3.52-1.46-3.52-3.28,0-2.06,1.58-3.3,4.26-3.3,1.68,0,2.88.32,4.1,1.04l-1.2,2Z"/>
  </g>
  <path d="M100.37,7.26v2.5h-9.7v-2.5h9.7Z"/>
  <path d="M4.04,26.6v1.78c.68-1.38,1.52-2,2.7-2,.58,0,1.04.12,1.52.42l-.76,2.76c-.44-.26-.76-.36-1.26-.36-1.34,0-2.2,1-2.2,2.6v5.26H.98v-10.46h3.06Z"/>
  <g>
    <path d="M19.48,31.78c0,3.24-2.22,5.5-5.36,5.5s-5.34-2.22-5.34-5.4,2.22-5.54,5.42-5.54,5.28,2.28,5.28,5.44ZM11.9,31.8c0,2,.78,3.1,2.22,3.1s2.24-1.1,2.24-3.1-.78-3.08-2.26-3.08c-1.4,0-2.2,1.12-2.2,3.08Z"/>
    <path d="M24.7,28.18c.8-1.24,1.82-1.84,3.2-1.84,2.54,0,4.26,2.18,4.26,5.46s-1.66,5.48-4.32,5.48c-1.4,0-2.48-.62-3.14-1.84v1.62h-3.06v-15.06h3.06v6.18ZM24.62,31.84c0,1.96.8,3.06,2.24,3.06s2.18-1.02,2.18-3.04-.76-3.14-2.2-3.14-2.22,1.16-2.22,3.12Z"/>
    <path d="M44.38,31.78c0,3.24-2.22,5.5-5.36,5.5s-5.34-2.22-5.34-5.4,2.22-5.54,5.42-5.54,5.28,2.28,5.28,5.44ZM36.8,31.8c0,2,.78,3.1,2.22,3.1s2.24-1.1,2.24-3.1-.78-3.08-2.26-3.08c-1.4,0-2.2,1.12-2.2,3.08Z"/>
    <path d="M47.06,26.6v-2.1l3.06-1.06v3.16h2.2v2.38h-2.2v4.62c0,.78.28,1.14.88,1.14.36,0,.68-.1,1.06-.32l.74,2.04c-.72.56-1.5.82-2.5.82-2.06,0-3.24-1.2-3.24-3.3v-5h-1.44v-2.38h1.44Z"/>
    <path d="M61.36,35.4c-.68,1.24-1.74,1.88-3.16,1.88-2.62,0-4.28-2.12-4.28-5.46s1.68-5.48,4.28-5.48c1.44,0,2.46.58,3.16,1.8v-6.14h3.06v15.06h-3.06v-1.66ZM57.04,31.84c0,2.02.72,3.06,2.16,3.06s2.26-1.1,2.26-3.06-.84-3.12-2.3-3.12c-1.36,0-2.12,1.12-2.12,3.12Z"/>
    <path d="M73.06,37.06c-.1-.26-.2-.72-.28-1.24-.74.98-1.7,1.46-2.98,1.46-1.98,0-3.26-1.16-3.26-2.96,0-2.4,1.96-3.56,6.12-3.6v-.28c0-1.16-.5-1.64-1.68-1.64-1,0-1.9.3-2.96,1.02l-1.3-1.96c1.36-1.06,2.78-1.52,4.7-1.52,1.64,0,2.78.42,3.52,1.3.58.7.8,1.5.8,2.86v4.74c0,.68.1,1.22.28,1.7v.12h-2.96ZM72.68,32.56c-2.2.04-3.14.48-3.14,1.48,0,.66.46,1.06,1.24,1.06,1.14,0,1.9-.66,1.9-1.62v-.92Z"/>
    <path d="M81.46,28.16c.72-1.22,1.7-1.82,3.02-1.82s2.18.56,2.78,1.74c.94-1.22,1.92-1.74,3.24-1.74,2.08,0,3.28,1.46,3.28,3.96v6.76h-3.06v-6.48c0-1.24-.48-1.86-1.4-1.86-1.04,0-1.7.78-1.7,2.04v6.3h-3.06v-6.52c0-1.2-.48-1.82-1.42-1.82-1.04,0-1.68.76-1.68,2v6.34h-3.06v-10.46h3.06v1.56Z"/>
    <path d="M99.54,28.16c.72-1.22,1.7-1.82,3.02-1.82s2.18.56,2.78,1.74c.94-1.22,1.92-1.74,3.24-1.74,2.08,0,3.28,1.46,3.28,3.96v6.76h-3.06v-6.48c0-1.24-.48-1.86-1.4-1.86-1.04,0-1.7.78-1.7,2.04v6.3h-3.06v-6.52c0-1.2-.48-1.82-1.42-1.82-1.04,0-1.68.76-1.68,2v6.34h-3.06v-10.46h3.06v1.56Z"/>
    <path d="M121.26,29.38c-.98-.48-1.92-.78-2.94-.78-.94,0-1.36.26-1.36.82,0,.62.36.8,2.06,1.12,1.2.2,1.84.4,2.42.76.92.54,1.36,1.38,1.36,2.52,0,2.2-1.68,3.46-4.6,3.46-2.02,0-3.32-.42-4.58-1.5l1.42-1.98c.96.88,1.84,1.22,3.08,1.22,1.12,0,1.72-.34,1.72-1,0-.3-.12-.5-.38-.64-.28-.14-.38-.18-1.84-.46-2.44-.46-3.52-1.46-3.52-3.28,0-2.06,1.58-3.3,4.26-3.3,1.68,0,2.88.32,4.1,1.04l-1.2,2Z"/>
    <path d="M131.18,35.46c-.68,1.26-1.66,1.82-3.12,1.82-2.06,0-3.24-1.44-3.24-3.96v-6.72h3.06v6.36c0,1.32.44,1.92,1.42,1.92,1.18,0,1.88-.8,1.88-2.14v-6.14h3.06v10.46h-3.06v-1.6Z"/>
    <path d="M145.14,28.7c.18.52.24.82.24,1.24,0,1.98-1.74,3.32-4.36,3.32-.7,0-1.26-.08-1.9-.28-.28.2-.42.44-.42.72,0,.56.36.76,1.42.76h2.64c2.42,0,3.76,1.02,3.76,2.9,0,2.36-2.06,3.7-5.66,3.7-3.12,0-4.96-.98-4.96-2.68,0-.86.54-1.5,1.7-2-.8-.48-1.18-1.1-1.18-1.9,0-.92.48-1.6,1.48-2.12-.86-.68-1.26-1.46-1.26-2.48,0-2.06,1.82-3.54,4.32-3.54.98,0,1.8.22,2.7.7l2.82-.64v2.3h-1.34ZM139.9,36.92c-.38,0-.52,0-.7-.04-.44.3-.64.6-.64,1.02,0,.82.74,1.18,2.38,1.18,1.86,0,2.82-.44,2.82-1.32,0-.58-.42-.84-1.44-.84h-2.42ZM139.4,29.88c0,1.02.62,1.64,1.62,1.64s1.58-.62,1.58-1.64-.58-1.62-1.62-1.62c-.98,0-1.58.62-1.58,1.62Z"/>
    <path d="M154.22,37.06c-.1-.26-.2-.72-.28-1.24-.74.98-1.7,1.46-2.98,1.46-1.98,0-3.26-1.16-3.26-2.96,0-2.4,1.96-3.56,6.12-3.6v-.28c0-1.16-.5-1.64-1.68-1.64-1,0-1.9.3-2.96,1.02l-1.3-1.96c1.36-1.06,2.78-1.52,4.7-1.52,1.64,0,2.78.42,3.52,1.3.58.7.8,1.5.8,2.86v4.74c0,.68.1,1.22.28,1.7v.12h-2.96ZM153.84,32.56c-2.2.04-3.14.48-3.14,1.48,0,.66.46,1.06,1.24,1.06,1.14,0,1.9-.66,1.9-1.62v-.92Z"/>
    <path d="M162.62,26.6v1.78c.68-1.38,1.52-2,2.7-2,.58,0,1.04.12,1.52.42l-.76,2.76c-.44-.26-.76-.36-1.26-.36-1.34,0-2.2,1-2.2,2.6v5.26h-3.06v-10.46h3.06Z"/>
    <path d="M177.52,34.86c-.84,1.6-2.12,2.42-4.6,2.42-3.22,0-5.42-2.18-5.42-5.36s2.18-5.58,5.28-5.58,4.9,2.04,4.9,5.44v.82h-7.1c.1,1.6,1.06,2.42,2.48,2.42.86,0,1.72-.36,2.06-1.08l2.4.92ZM174.7,30.74c-.16-1.5-.72-2.14-1.94-2.14s-1.84.66-2.12,2.14h4.06Z"/>
    <path d="M182.82,26.6v1.64c.7-1.28,1.76-1.9,3.24-1.9,2.1,0,3.3,1.44,3.3,3.96v6.76h-3.06v-6.36c0-1.36-.5-1.98-1.58-1.98-1.2,0-1.9.8-1.9,2.18v6.16h-3.06v-10.46h3.06Z"/>
  </g>
  <g>
    <path d="M203.59,35.4c-.68,1.24-1.74,1.88-3.16,1.88-2.62,0-4.28-2.12-4.28-5.46s1.68-5.48,4.28-5.48c1.44,0,2.46.58,3.16,1.8v-6.14h3.06v15.06h-3.06v-1.66ZM199.27,31.84c0,2.02.72,3.06,2.16,3.06s2.26-1.1,2.26-3.06-.84-3.12-2.3-3.12c-1.36,0-2.12,1.12-2.12,3.12Z"/>
    <path d="M215.75,35.46c-.68,1.26-1.66,1.82-3.12,1.82-2.06,0-3.24-1.44-3.24-3.96v-6.72h3.06v6.36c0,1.32.44,1.92,1.42,1.92,1.18,0,1.88-.8,1.88-2.14v-6.14h3.06v10.46h-3.06v-1.6Z"/>
  </g>
  <path d="M229.6,34.1v2.96h-3.06v-15.06h3.06v8.68l3.28-4.08h3.32l-3.5,4.1,3.86,6.36h-3.4l-2.5-4.2-1.06,1.24Z"/>
  <g>
    <path d="M243.82,37.06c-.1-.26-.2-.72-.28-1.24-.74.98-1.7,1.46-2.98,1.46-1.98,0-3.26-1.16-3.26-2.96,0-2.4,1.96-3.56,6.12-3.6v-.28c0-1.16-.5-1.64-1.68-1.64-1,0-1.9.3-2.96,1.02l-1.3-1.96c1.36-1.06,2.78-1.52,4.7-1.52,1.64,0,2.78.42,3.52,1.3.58.7.8,1.5.8,2.86v4.74c0,.68.1,1.22.28,1.7v.12h-2.96ZM243.44,32.56c-2.2.04-3.14.48-3.14,1.48,0,.66.46,1.06,1.24,1.06,1.14,0,1.9-.66,1.9-1.62v-.92Z"/>
    <path d="M252.22,26.6v1.64c.7-1.28,1.76-1.9,3.24-1.9,2.1,0,3.3,1.44,3.3,3.96v6.76h-3.06v-6.36c0-1.36-.5-1.98-1.58-1.98-1.2,0-1.9.8-1.9,2.18v6.16h-3.06v-10.46h3.06Z"/>
  </g>
  <g>
    <path d="M272.41,36.68c-.56.5-1.74.66-2.76.66-2.16,0-3.24-.88-3.24-3.42v-11.92h3.06v11.98c0,.68.34.98.92.98.34,0,.76-.1,1.22-.5l.8,2.22Z"/>
    <path d="M276.87,23.34c0,.94-.78,1.7-1.78,1.7s-1.76-.74-1.76-1.7.78-1.68,1.78-1.68,1.76.76,1.76,1.68ZM276.63,26.6v10.46h-3.06v-10.46h3.06Z"/>
    <path d="M280.03,26.6v-2.1l3.06-1.06v3.16h2.2v2.38h-2.2v4.62c0,.78.28,1.14.88,1.14.36,0,.68-.1,1.06-.32l.74,2.04c-.72.56-1.5.82-2.5.82-2.06,0-3.24-1.2-3.24-3.3v-5h-1.44v-2.38h1.44Z"/>
    <path d="M293.35,37.06c-.1-.26-.2-.72-.28-1.24-.74.98-1.7,1.46-2.98,1.46-1.98,0-3.26-1.16-3.26-2.96,0-2.4,1.96-3.56,6.12-3.6v-.28c0-1.16-.5-1.64-1.68-1.64-1,0-1.9.3-2.96,1.02l-1.3-1.96c1.36-1.06,2.78-1.52,4.7-1.52,1.64,0,2.78.42,3.52,1.3.58.7.8,1.5.8,2.86v4.74c0,.68.1,1.22.28,1.7v.12h-2.96ZM292.97,32.56c-2.2.04-3.14.48-3.14,1.48,0,.66.46,1.06,1.24,1.06,1.14,0,1.9-.66,1.9-1.62v-.92Z"/>
  </g>
  <g>
    <path d="M306.7,26.6v1.58c.8-1.24,1.82-1.84,3.2-1.84,2.56,0,4.26,2.18,4.26,5.46s-1.68,5.48-4.28,5.48c-1.42,0-2.5-.6-3.18-1.78v5.2h-3.06v-14.1h3.06ZM306.62,31.84c0,1.96.8,3.06,2.24,3.06s2.18-1.02,2.18-3.04-.76-3.14-2.2-3.14-2.22,1.16-2.22,3.12Z"/>
    <path d="M322.15,37.06c-.1-.26-.2-.72-.28-1.24-.74.98-1.7,1.46-2.98,1.46-1.98,0-3.26-1.16-3.26-2.96,0-2.4,1.96-3.56,6.12-3.6v-.28c0-1.16-.5-1.64-1.68-1.64-1,0-1.9.3-2.96,1.02l-1.3-1.96c1.36-1.06,2.78-1.52,4.7-1.52,1.64,0,2.78.42,3.52,1.3.58.7.8,1.5.8,2.86v4.74c0,.68.1,1.22.28,1.7v.12h-2.96ZM322.79,23.24c0,1.22-.98,2.18-2.26,2.18s-2.28-.94-2.28-2.18.98-2.16,2.3-2.16,2.24.94,2.24,2.16ZM321.77,32.56c-2.2.04-3.14.48-3.14,1.48,0,.66.46,1.06,1.24,1.06,1.14,0,1.9-.66,1.9-1.62v-.92ZM319.69,23.26c0,.48.34.84.84.84s.82-.36.82-.84-.34-.86-.84-.86-.82.36-.82.86Z"/>
    <path d="M330.97,35.38c0,1.04-.84,1.88-1.88,1.88s-1.88-.82-1.88-1.88.84-1.88,1.9-1.88,1.86.86,1.86,1.88Z"/>
  </g>
</svg>