<?xml version="1.0" encoding="UTF-8"?>
<svg id="Lager_1" data-name="Lager 1" xmlns="http://www.w3.org/2000/svg" viewBox="0 0 63.97 23.96">
  <polygon points="0 0 0 23.96 63.97 23.96 63.97 0 0 0 0 0" style="fill: #007bc0;"/>
  <g>
    <path d="M8.17,7.88v6.98h3.85v.75h-4.74v-7.72h.9Z" style="fill: #fff;"/>
    <path d="M21.56,14.7c-.52.75-1.24.99-2.17.99s-1.63-.38-2.16-1.16c-.56.82-1.17,1.16-2.11,1.16-1.08,0-1.8-.63-1.8-1.57,0-.77.5-1.34,1.4-1.62.53-.17.99-.22,2.06-.24v-.4c0-.86-.36-1.27-1.1-1.27-.65,0-1.16.24-1.72.82l-.52-.57c.68-.7,1.33-.99,2.24-.99s1.38.29,1.73.98c.5-.67,1.09-.98,1.87-.98,1.45,0,2.36,1.08,2.36,2.8v.3h-3.95c.05.83.22,1.29.6,1.62.29.25.65.38,1.1.38.63,0,1.08-.17,1.51-.78l.66.53ZM16.78,12.9c-1.83.01-2.59.37-2.59,1.21,0,.55.38.86,1.05.86.9,0,1.54-.52,1.54-1.24v-.83ZM20.71,12.23c-.05-.46-.09-.65-.18-.86-.24-.51-.64-.77-1.23-.77-.86,0-1.38.53-1.59,1.63h3Z" style="fill: #fff;"/>
    <path d="M26.34,11.27c-.46-.51-.81-.67-1.37-.67-.67,0-1.05.28-1.05.77,0,.24.11.44.28.56.2.13.4.21,1.02.36.86.21,1.17.33,1.49.63.28.26.44.66.44,1.1,0,1.03-.83,1.69-2.13,1.69-1.02,0-1.74-.35-2.33-1.09l.65-.53c.51.67.9.88,1.65.88.83,0,1.29-.31,1.29-.86,0-.27-.12-.5-.32-.63-.22-.15-.35-.18-1.13-.38-1.26-.3-1.77-.79-1.77-1.66,0-.97.73-1.57,1.93-1.57.86,0,1.39.23,1.94.82l-.58.59Z" style="fill: #fff;"/>
    <path d="M33.29,10.81c.35-.64.88-.96,1.59-.96.77,0,1.26.33,1.58,1.06.41-.7,1-1.06,1.79-1.06,1.13,0,1.78.82,1.78,2.25v3.5h-.9v-3.57c0-.97-.33-1.4-1.07-1.4-.84,0-1.4.61-1.4,1.51v3.46h-.9v-3.57c0-.97-.33-1.4-1.07-1.4-.84,0-1.4.61-1.4,1.51v3.46h-.9v-5.65h.9v.86Z" style="fill: #fff;"/>
    <path d="M46.66,14.7c-.52.75-1.24.99-2.15.99-1.79,0-2.8-1.18-2.8-2.91s1.05-2.94,2.57-2.94,2.42,1.06,2.42,2.81v.29h-4.06c.02.81.21,1.26.59,1.62.29.26.67.38,1.25.38.63,0,1.08-.17,1.51-.78l.66.53ZM45.78,12.23c-.12-1.16-.55-1.63-1.49-1.63s-1.42.53-1.62,1.63h3.11Z" style="fill: #fff;"/>
    <path d="M49.3,9.95v.91c.37-.68.85-1,1.51-1,.35,0,.62.06.92.23l-.37.76c-.25-.13-.4-.17-.66-.17-.88,0-1.4.7-1.4,1.84v3.1h-.9v-5.65h.9Z" style="fill: #fff;"/>
  </g>
  <path d="M57.16,14.7c-.52.75-1.24.99-2.15.99-1.79,0-2.8-1.18-2.8-2.91s1.05-2.94,2.57-2.94,2.42,1.06,2.42,2.81v.29h-4.06c.02.81.21,1.26.59,1.62.29.26.67.38,1.25.38.63,0,1.08-.17,1.51-.78l.66.53ZM56.29,12.23c-.12-1.16-.55-1.63-1.49-1.63s-1.42.53-1.62,1.63h3.11Z" style="fill: #fff;"/>
</svg>