<?xml version="1.0" encoding="UTF-8"?>
<svg id="Lager_1" data-name="Lager 1" xmlns="http://www.w3.org/2000/svg" viewBox="0 0 209.09 123.53">
  <g>
    <path d="M8.87.99c3.95,0,6.08,1.72,6.08,4.91,0,2-.73,3.12-2.63,4,2.37.81,3.33,2.11,3.33,4.45,0,3.41-2.26,5.23-6.5,5.23H.47V.99h8.4ZM8.63,8.5c1.56,0,2.29-.7,2.29-2.18s-.78-2.16-2.47-2.16h-3.9v4.34h4.08ZM8.84,16.41c1.74,0,2.7-.88,2.7-2.5s-.99-2.44-2.86-2.44h-4.13v4.94h4.29Z"/>
    <path d="M31.23,12.71c0,4.21-2.89,7.15-6.97,7.15s-6.94-2.89-6.94-7.02,2.89-7.2,7.05-7.2,6.86,2.96,6.86,7.07ZM21.37,12.74c0,2.6,1.01,4.03,2.89,4.03s2.91-1.43,2.91-4.03-1.01-4-2.94-4c-1.82,0-2.86,1.46-2.86,4Z"/>
    <path d="M42.48,9.59c-1.27-.62-2.5-1.01-3.82-1.01-1.22,0-1.77.34-1.77,1.07,0,.81.47,1.04,2.68,1.46,1.56.26,2.39.52,3.15.99,1.2.7,1.77,1.79,1.77,3.28,0,2.86-2.18,4.5-5.98,4.5-2.63,0-4.32-.55-5.95-1.95l1.85-2.57c1.25,1.14,2.39,1.59,4,1.59,1.46,0,2.24-.44,2.24-1.3,0-.39-.16-.65-.49-.83-.36-.18-.49-.23-2.39-.6-3.17-.6-4.58-1.9-4.58-4.26,0-2.68,2.05-4.29,5.54-4.29,2.18,0,3.74.42,5.33,1.35l-1.56,2.6Z"/>
    <path d="M58.79,16.51c-1.01,2.18-2.81,3.35-5.67,3.35-4.34,0-6.99-2.76-6.99-6.99s2.7-7.23,6.71-7.23c2.6,0,4.39.94,5.62,2.78l-3.28,1.92c-.44-1.04-1.09-1.61-2.21-1.61-1.79,0-2.78,1.43-2.78,4.03s.99,4,2.91,4c1.3,0,1.95-.52,2.44-1.79l3.25,1.53Z"/>
  </g>
  <path d="M64.61,0v8.11c.91-1.66,2.29-2.47,4.21-2.47,2.73,0,4.29,1.87,4.29,5.15v8.79h-3.98v-8.27c0-1.77-.65-2.57-2.03-2.57-1.59,0-2.5,1.04-2.5,2.83v8.01h-3.98V0h3.98Z"/>
  <path d="M4.11,35.98v2.31c.88-1.79,1.98-2.6,3.51-2.6.75,0,1.35.16,1.98.55l-.99,3.59c-.57-.34-.99-.47-1.64-.47-1.74,0-2.86,1.3-2.86,3.38v6.84H.13v-13.6h3.98Z"/>
  <g>
    <path d="M23.92,42.71c0,4.21-2.89,7.15-6.97,7.15s-6.94-2.89-6.94-7.02,2.89-7.2,7.05-7.2,6.86,2.96,6.86,7.07ZM14.06,42.74c0,2.6,1.01,4.03,2.89,4.03s2.91-1.43,2.91-4.03-1.01-4-2.94-4c-1.82,0-2.86,1.46-2.86,4Z"/>
    <path d="M30.44,38.03c1.04-1.61,2.37-2.39,4.16-2.39,3.3,0,5.54,2.83,5.54,7.1s-2.16,7.12-5.62,7.12c-1.82,0-3.22-.81-4.08-2.39v2.11h-3.98v-19.58h3.98v8.03ZM30.34,42.79c0,2.55,1.04,3.98,2.91,3.98s2.83-1.33,2.83-3.95-.99-4.08-2.86-4.08-2.89,1.51-2.89,4.06Z"/>
    <path d="M55.77,42.71c0,4.21-2.89,7.15-6.97,7.15s-6.94-2.89-6.94-7.02,2.89-7.2,7.05-7.2,6.86,2.96,6.86,7.07ZM45.91,42.74c0,2.6,1.01,4.03,2.89,4.03s2.91-1.43,2.91-4.03-1.01-4-2.94-4c-1.82,0-2.86,1.46-2.86,4Z"/>
    <path d="M58.99,35.98v-2.73l3.98-1.38v4.11h2.86v3.09h-2.86v6.01c0,1.01.36,1.48,1.14,1.48.47,0,.88-.13,1.38-.42l.96,2.65c-.94.73-1.95,1.07-3.25,1.07-2.68,0-4.21-1.56-4.21-4.29v-6.5h-1.87v-3.09h1.87Z"/>
  </g>
  <g>
    <path d="M77.29,39.59c-1.27-.62-2.5-1.01-3.82-1.01-1.22,0-1.77.34-1.77,1.07,0,.81.47,1.04,2.68,1.46,1.56.26,2.39.52,3.15.99,1.2.7,1.77,1.79,1.77,3.28,0,2.86-2.18,4.5-5.98,4.5-2.63,0-4.32-.55-5.95-1.95l1.85-2.57c1.25,1.14,2.39,1.59,4,1.59,1.46,0,2.24-.44,2.24-1.3,0-.39-.16-.65-.49-.83-.36-.18-.49-.23-2.39-.6-3.17-.6-4.58-1.9-4.58-4.26,0-2.68,2.05-4.29,5.54-4.29,2.18,0,3.74.42,5.33,1.35l-1.56,2.6Z"/>
    <path d="M82.36,35.98v-2.73l3.98-1.38v4.11h2.86v3.09h-2.86v6.01c0,1.01.36,1.48,1.14,1.48.47,0,.88-.13,1.38-.42l.96,2.65c-.94.73-1.95,1.07-3.25,1.07-2.68,0-4.21-1.56-4.21-4.29v-6.5h-1.87v-3.09h1.87Z"/>
    <path d="M92.27,47.29c-.91-1.25-1.38-2.73-1.38-4.45,0-4.21,2.89-7.2,6.97-7.2,1.56,0,2.89.39,4.11,1.22l.83-.88h2.68l-2.11,2.26c.96,1.27,1.43,2.73,1.43,4.47,0,4.21-2.86,7.15-6.97,7.15-1.56,0-2.89-.39-4.13-1.22l-.86.94h-2.7l2.13-2.29ZM99.71,39.28c-.47-.42-1.12-.65-1.85-.65-1.92,0-2.99,1.46-2.99,4.06,0,.52.03.94.13,1.53l4.71-4.94ZM95.99,46.2c.52.47,1.09.68,1.85.68,1.9,0,2.99-1.48,2.99-4.08,0-.55-.05-1.01-.16-1.64l-4.68,5.04Z"/>
    <path d="M109.82,35.98l2.86,9.31,2.81-9.31h3.85l-4.65,13.6h-4.42l-4.71-13.6h4.26Z"/>
    <path d="M129.66,39.59c-1.27-.62-2.5-1.01-3.82-1.01-1.22,0-1.77.34-1.77,1.07,0,.81.47,1.04,2.68,1.46,1.56.26,2.39.52,3.15.99,1.2.7,1.77,1.79,1.77,3.28,0,2.86-2.18,4.5-5.98,4.5-2.63,0-4.32-.55-5.95-1.95l1.85-2.57c1.25,1.14,2.39,1.59,4,1.59,1.46,0,2.24-.44,2.24-1.3,0-.39-.16-.65-.49-.83-.36-.18-.49-.23-2.39-.6-3.17-.6-4.58-1.9-4.58-4.26,0-2.68,2.05-4.29,5.54-4.29,2.18,0,3.74.42,5.33,1.35l-1.56,2.6Z"/>
    <path d="M142.21,47.5c-.88,1.64-2.16,2.37-4.06,2.37-2.68,0-4.21-1.87-4.21-5.15v-8.74h3.98v8.27c0,1.72.57,2.5,1.85,2.5,1.53,0,2.44-1.04,2.44-2.78v-7.98h3.98v13.6h-3.98v-2.08Z"/>
    <path d="M160.02,38.71c.23.68.31,1.07.31,1.61,0,2.57-2.26,4.32-5.67,4.32-.91,0-1.64-.1-2.47-.36-.36.26-.55.57-.55.94,0,.73.47.99,1.85.99h3.43c3.15,0,4.89,1.33,4.89,3.77,0,3.07-2.68,4.81-7.36,4.81-4.06,0-6.45-1.27-6.45-3.48,0-1.12.7-1.95,2.21-2.6-1.04-.62-1.53-1.43-1.53-2.47,0-1.2.62-2.08,1.92-2.76-1.12-.88-1.64-1.9-1.64-3.22,0-2.68,2.37-4.6,5.62-4.6,1.27,0,2.34.29,3.51.91l3.67-.83v2.99h-1.74ZM153.21,49.4c-.49,0-.68,0-.91-.05-.57.39-.83.78-.83,1.33,0,1.07.96,1.53,3.09,1.53,2.42,0,3.67-.57,3.67-1.72,0-.75-.55-1.09-1.87-1.09h-3.15ZM152.56,40.24c0,1.33.81,2.13,2.11,2.13s2.05-.81,2.05-2.13-.75-2.11-2.11-2.11c-1.27,0-2.05.81-2.05,2.11Z"/>
    <path d="M176.12,46.72c-1.09,2.08-2.76,3.15-5.98,3.15-4.19,0-7.05-2.83-7.05-6.97s2.83-7.25,6.86-7.25,6.37,2.65,6.37,7.07v1.07h-9.23c.13,2.08,1.38,3.15,3.22,3.15,1.12,0,2.24-.47,2.68-1.4l3.12,1.2ZM172.45,41.36c-.21-1.95-.94-2.78-2.52-2.78s-2.39.86-2.76,2.78h5.28Z"/>
    <path d="M182.67,35.98v2.31c.88-1.79,1.98-2.6,3.51-2.6.75,0,1.35.16,1.98.55l-.99,3.59c-.57-.34-.99-.47-1.64-.47-1.74,0-2.86,1.3-2.86,3.38v6.84h-3.98v-13.6h3.98Z"/>
    <path d="M201.7,46.72c-1.09,2.08-2.76,3.15-5.98,3.15-4.19,0-7.05-2.83-7.05-6.97s2.83-7.25,6.86-7.25,6.37,2.65,6.37,7.07v1.07h-9.23c.13,2.08,1.38,3.15,3.22,3.15,1.12,0,2.24-.47,2.68-1.4l3.12,1.2ZM198.04,41.36c-.21-1.95-.94-2.78-2.52-2.78s-2.39.86-2.76,2.78h5.28Z"/>
  </g>
  <path d="M209.09,47.39c0,1.35-1.09,2.44-2.44,2.44s-2.44-1.07-2.44-2.44,1.09-2.44,2.47-2.44,2.42,1.12,2.42,2.44Z"/>
  <g>
    <path d="M11,74c-.91-2-2.13-2.44-4.45-2.44s-3.8,1.12-3.8,2.99c0,1.07.39,1.74,1.27,2.26.73.42,1.27.6,3.22,1.04,2.34.52,3.59,1.01,4.58,1.79,1.12.91,1.72,2.21,1.72,3.8,0,3.28-2.55,5.38-6.53,5.38-3.51,0-6.01-1.3-7.02-4.19l1.92-.78c.75,2.37,2.42,3.17,5.1,3.17s4.42-1.35,4.42-3.54c0-.91-.31-1.66-.91-2.18-.73-.62-1.51-.91-4.13-1.56-2.13-.52-3.25-.96-4.19-1.66-1.01-.75-1.56-1.95-1.56-3.38,0-3.04,2.26-4.94,5.88-4.94,3.09,0,5.1.81,6.24,3.33l-1.77.91Z"/>
    <path d="M17.76,74.99v-3.54l2.16-.52v4.06h3.43v1.79h-3.43v8.29c0,1.33.49,1.95,1.56,1.95.7,0,1.22-.18,1.85-.65l.83,1.48c-.91.7-1.69.96-2.81.96-2.21,0-3.59-1.27-3.59-3.33v-8.71h-2.08v-1.79h2.08Z"/>
  </g>
  <path d="M45.71,86.43c-1.25,1.79-2.99,2.39-5.23,2.39s-3.93-.91-5.2-2.78c-1.35,1.98-2.81,2.78-5.07,2.78-2.6,0-4.34-1.51-4.34-3.77,0-1.85,1.2-3.22,3.38-3.9,1.27-.42,2.39-.52,4.97-.57v-.96c0-2.08-.86-3.07-2.65-3.07-1.56,0-2.78.57-4.13,1.98l-1.25-1.38c1.64-1.69,3.2-2.39,5.38-2.39s3.33.7,4.16,2.37c1.2-1.61,2.63-2.37,4.5-2.37,3.48,0,5.67,2.6,5.67,6.73v.73h-9.52c.13,2,.52,3.09,1.46,3.9.7.6,1.56.91,2.65.91,1.51,0,2.6-.42,3.64-1.87l1.59,1.27ZM34.22,82.09c-4.39.03-6.24.88-6.24,2.91,0,1.33.91,2.08,2.52,2.08,2.16,0,3.72-1.25,3.72-2.99v-2ZM43.68,80.47c-.13-1.12-.21-1.56-.44-2.08-.57-1.22-1.53-1.85-2.96-1.85-2.08,0-3.33,1.27-3.82,3.93h7.23Z"/>
  <g>
    <path d="M51.42,74.99v2.18c.88-1.64,2.05-2.42,3.64-2.42.83,0,1.48.16,2.21.55l-.88,1.82c-.6-.31-.96-.42-1.59-.42-2.11,0-3.38,1.69-3.38,4.42v7.46h-2.16v-13.6h2.16Z"/>
    <path d="M61.77,84.32v4.26h-2.16v-19.58h2.16v12.51l5.54-6.53h2.55l-4.63,5.33,5.3,8.27h-2.44l-4.26-6.63-2.05,2.37Z"/>
    <path d="M76.72,87.05c0,.91-.75,1.66-1.66,1.66s-1.66-.73-1.66-1.66.73-1.66,1.66-1.66,1.66.75,1.66,1.66Z"/>
  </g>
  <path d="M94.06,70c2.34,0,3.77.42,4.86,1.4,1.07.94,1.61,2.31,1.61,4.03,0,3.38-2.18,5.28-6.06,5.28h-4.86v7.88h-2.16v-18.59h6.6ZM94.21,78.97c1.53,0,2.42-.26,3.12-.94.65-.62.99-1.53.99-2.7,0-2.42-1.27-3.54-3.98-3.54h-4.73v7.18h4.6Z"/>
  <g>
    <path d="M115.01,88.66c-.29.03-.55.03-.75.03-1.46,0-2.39-.65-2.81-1.95-1.2,1.43-2.5,2.08-4.19,2.08-2.52,0-4.29-1.56-4.29-3.74,0-2,1.33-3.43,3.74-4.08,1.27-.34,2.26-.44,4.6-.52v-.86c0-2.11-.83-3.07-2.68-3.07-1.43,0-2.5.47-3.9,1.69l-1.27-1.4c1.64-1.48,3.12-2.08,5.17-2.08,3.12,0,4.84,1.72,4.84,4.86v6.06c0,.96.36,1.27,1.53,1.3v1.69ZM111.32,82.01c-4.37.16-6.19,1.01-6.19,2.96,0,1.35.88,2.11,2.5,2.11,2.16,0,3.69-1.25,3.69-2.99v-2.08ZM111.45,70.59c0,1.48-1.22,2.7-2.76,2.7s-2.76-1.2-2.76-2.7,1.22-2.7,2.78-2.7,2.73,1.22,2.73,2.7ZM107.24,70.59c0,.83.62,1.46,1.46,1.46s1.46-.62,1.46-1.46-.62-1.46-1.46-1.46-1.46.62-1.46,1.46Z"/>
    <path d="M123.67,88.17c-.65.39-1.33.62-2.39.62-1.98,0-3.3-.88-3.3-3.59v-16.2h2.16v16.38c0,1.27.68,1.61,1.48,1.61.62,0,1.01-.18,1.35-.44l.7,1.61Z"/>
    <path d="M128.27,70.75c0,.78-.65,1.43-1.43,1.43s-1.43-.65-1.43-1.43.65-1.43,1.43-1.43,1.43.65,1.43,1.43ZM127.96,74.99v13.6h-2.16v-13.6h2.16Z"/>
    <path d="M142,86.4c-1.01,1.59-2.55,2.42-4.5,2.42-3.54,0-5.82-2.78-5.82-7.1s2.31-6.97,5.8-6.97c1.92,0,3.48.86,4.52,2.47v-8.22h2.16v19.58h-2.16v-2.18ZM133.91,81.85c0,3.43,1.3,5.17,3.9,5.17,2.73,0,4.26-1.9,4.26-5.23s-1.59-5.25-4.19-5.25-3.98,1.92-3.98,5.3Z"/>
    <path d="M159.75,86.43c-1.25,1.79-2.99,2.39-5.17,2.39-4.32,0-6.73-2.83-6.73-6.99s2.52-7.07,6.19-7.07,5.82,2.55,5.82,6.76v.7h-9.78c.05,1.95.49,3.04,1.43,3.9.7.62,1.61.91,3.02.91,1.51,0,2.6-.42,3.64-1.87l1.59,1.27ZM157.65,80.47c-.29-2.78-1.33-3.93-3.59-3.93s-3.41,1.27-3.9,3.93h7.49Z"/>
    <path d="M169.14,88.17c-.65.39-1.33.62-2.39.62-1.98,0-3.3-.88-3.3-3.59v-16.2h2.16v16.38c0,1.27.68,1.61,1.48,1.61.62,0,1.01-.18,1.35-.44l.7,1.61Z"/>
    <path d="M173.74,70.75c0,.78-.65,1.43-1.43,1.43s-1.43-.65-1.43-1.43.65-1.43,1.43-1.43,1.43.65,1.43,1.43ZM173.43,74.99v13.6h-2.16v-13.6h2.16Z"/>
  </g>
  <g>
    <path d="M184.04,85.62c3.07,0,4.78,1.33,4.78,3.67,0,2.68-2.47,4.37-6.42,4.37-3.67,0-6.01-1.46-6.01-3.74,0-1.22.75-2.18,2.31-2.91-.91-.49-1.33-1.2-1.33-2.18s.47-1.72,1.48-2.31c-1.12-.91-1.66-1.98-1.66-3.33,0-2.63,2.03-4.42,4.99-4.42,1.01,0,1.77.16,2.7.57l3.9-.55v1.95h-2.03c.62.81.88,1.59.88,2.6,0,2.68-1.98,4.32-5.15,4.32-.94,0-1.66-.13-2.47-.47-.49.42-.7.78-.7,1.27,0,.88.49,1.17,2,1.17h2.7ZM181.07,87.49c-.21,0-.65-.03-.86-.05-1.2.6-1.72,1.3-1.72,2.26,0,1.48,1.33,2.24,3.95,2.24,2.81,0,4.26-.88,4.26-2.55,0-1.27-.91-1.9-2.7-1.9h-2.94ZM179.36,79.17c0,1.69,1.2,2.76,3.15,2.76s2.99-.96,2.99-2.7-1.2-2.76-3.09-2.76-3.04,1.01-3.04,2.7Z"/>
    <path d="M195.01,87.05c0,.91-.75,1.66-1.66,1.66s-1.66-.73-1.66-1.66.73-1.66,1.66-1.66,1.66.75,1.66,1.66Z"/>
  </g>
  <path d="M3.02,100v9.44l8.27-9.44h2.5l-6.84,7.72,7.18,10.87h-2.42l-6.14-9.33-2.55,2.89v6.45H.86v-18.59h2.16Z"/>
  <g>
    <path d="M22.69,118.17c-.65.39-1.33.62-2.39.62-1.98,0-3.3-.88-3.3-3.59v-16.2h2.16v16.38c0,1.27.68,1.61,1.48,1.61.62,0,1.01-.18,1.35-.44l.7,1.61Z"/>
    <path d="M35.69,118.66c-.29.03-.55.03-.75.03-1.46,0-2.39-.65-2.81-1.95-1.2,1.43-2.5,2.08-4.19,2.08-2.52,0-4.29-1.56-4.29-3.74,0-2,1.33-3.43,3.74-4.08,1.27-.34,2.26-.44,4.6-.52v-.86c0-2.11-.83-3.07-2.68-3.07-1.43,0-2.5.47-3.9,1.69l-1.27-1.4c1.64-1.48,3.12-2.08,5.17-2.08,3.12,0,4.84,1.72,4.84,4.86v6.06c0,.96.36,1.27,1.53,1.3v1.69ZM32,112.01c-4.37.16-6.19,1.01-6.19,2.96,0,1.35.88,2.11,2.5,2.11,2.16,0,3.69-1.25,3.69-2.99v-2.08Z"/>
    <path d="M40.81,104.99v2.18c.88-1.64,2.05-2.42,3.64-2.42.83,0,1.48.16,2.21.55l-.88,1.82c-.6-.31-.96-.42-1.59-.42-2.11,0-3.38,1.69-3.38,4.42v7.46h-2.16v-13.6h2.16Z"/>
  </g>
  <g>
    <path d="M59.22,116.43c-1.25,1.79-2.99,2.39-5.17,2.39-4.32,0-6.73-2.83-6.73-6.99s2.52-7.07,6.19-7.07,5.82,2.55,5.82,6.76v.7h-9.78c.05,1.95.49,3.04,1.43,3.9.7.62,1.61.91,3.02.91,1.51,0,2.6-.42,3.64-1.87l1.59,1.27ZM57.12,110.47c-.29-2.78-1.33-3.93-3.59-3.93s-3.41,1.27-3.9,3.93h7.49Z"/>
    <path d="M65.07,104.99v2.18c.88-1.64,2.05-2.42,3.64-2.42.83,0,1.48.16,2.21.55l-.88,1.82c-.6-.31-.96-.42-1.59-.42-2.11,0-3.38,1.69-3.38,4.42v7.46h-2.16v-13.6h2.16Z"/>
  </g>
  <g>
    <path d="M90.16,118.66c-.29.03-.55.03-.75.03-1.46,0-2.39-.65-2.81-1.95-1.2,1.43-2.5,2.08-4.19,2.08-2.52,0-4.29-1.56-4.29-3.74,0-2,1.33-3.43,3.74-4.08,1.27-.34,2.26-.44,4.6-.52v-.86c0-2.11-.83-3.07-2.68-3.07-1.43,0-2.5.47-3.9,1.69l-1.27-1.4c1.64-1.48,3.12-2.08,5.17-2.08,3.12,0,4.84,1.72,4.84,4.86v6.06c0,.96.36,1.27,1.53,1.3v1.69ZM86.47,112.01c-4.37.16-6.19,1.01-6.19,2.96,0,1.35.88,2.11,2.5,2.11,2.16,0,3.69-1.25,3.69-2.99v-2.08Z"/>
    <path d="M95.28,104.99v2.18c.88-1.64,2.05-2.42,3.64-2.42.83,0,1.48.16,2.21.55l-.88,1.82c-.6-.31-.96-.42-1.59-.42-2.11,0-3.38,1.69-3.38,4.42v7.46h-2.16v-13.6h2.16Z"/>
    <path d="M105.45,107.22c1.04-1.61,2.6-2.47,4.52-2.47,3.48,0,5.8,2.76,5.8,6.97s-2.29,7.1-5.82,7.1c-1.95,0-3.51-.83-4.5-2.42v2.18h-2.16v-19.58h2.16v8.22ZM105.37,111.8c0,3.33,1.53,5.23,4.21,5.23s3.95-1.72,3.95-5.17-1.46-5.3-3.93-5.3c-2.65,0-4.24,1.98-4.24,5.25Z"/>
    <path d="M130.22,116.43c-1.25,1.79-2.99,2.39-5.17,2.39-4.32,0-6.73-2.83-6.73-6.99s2.52-7.07,6.19-7.07,5.82,2.55,5.82,6.76v.7h-9.78c.05,1.95.49,3.04,1.43,3.9.7.62,1.61.91,3.02.91,1.51,0,2.6-.42,3.64-1.87l1.59,1.27ZM128.12,110.47c-.29-2.78-1.33-3.93-3.59-3.93s-3.41,1.27-3.9,3.93h7.49Z"/>
  </g>
  <g>
    <path d="M135.89,119.78c0,2.44-1.25,3.74-3.54,3.74-.7,0-1.14-.1-1.74-.42l.49-1.64c.52.23.65.26,1.01.26,1.07,0,1.61-.57,1.61-1.72v-15.03h2.16v14.79ZM136.2,100.75c0,.78-.65,1.43-1.43,1.43s-1.43-.65-1.43-1.43.65-1.43,1.43-1.43,1.43.65,1.43,1.43Z"/>
    <path d="M149.93,116.4c-1.01,1.59-2.55,2.42-4.5,2.42-3.54,0-5.82-2.78-5.82-7.1s2.31-6.97,5.8-6.97c1.92,0,3.48.86,4.52,2.47v-8.22h2.16v19.58h-2.16v-2.18ZM141.84,111.85c0,3.43,1.3,5.17,3.9,5.17,2.73,0,4.26-1.9,4.26-5.23s-1.59-5.25-4.19-5.25-3.98,1.92-3.98,5.3Z"/>
    <path d="M167.69,116.43c-1.25,1.79-2.99,2.39-5.17,2.39-4.32,0-6.73-2.83-6.73-6.99s2.52-7.07,6.19-7.07,5.82,2.55,5.82,6.76v.7h-9.78c.05,1.95.49,3.04,1.43,3.9.7.62,1.61.91,3.02.91,1.51,0,2.6-.42,3.64-1.87l1.59,1.27ZM165.58,110.47c-.29-2.78-1.33-3.93-3.59-3.93s-3.41,1.27-3.9,3.93h7.49Z"/>
  </g>
  <g>
    <path d="M171.48,104.99v-3.54l2.16-.52v4.06h3.43v1.79h-3.43v8.29c0,1.33.49,1.95,1.56,1.95.7,0,1.22-.18,1.85-.65l.83,1.48c-.91.7-1.69.96-2.81.96-2.21,0-3.59-1.27-3.59-3.33v-8.71h-2.08v-1.79h2.08Z"/>
    <path d="M183.94,117.05c0,.91-.75,1.66-1.66,1.66s-1.66-.73-1.66-1.66.73-1.66,1.66-1.66,1.66.75,1.66,1.66Z"/>
  </g>
</svg>