<?xml version="1.0" encoding="UTF-8"?>
<svg id="Lager_1" data-name="Lager 1" xmlns="http://www.w3.org/2000/svg" viewBox="0 0 193.18 36.84">
  <g>
    <path d="M2.48,9.61c.54,1.31,1.4,1.87,2.84,1.87s2.3-.59,2.3-1.58c0-.86-.47-1.21-2.34-1.64-2.03-.47-2.67-.68-3.26-1.06-.99-.63-1.46-1.51-1.46-2.75C.58,2,2.3.5,5.33.5c2,0,3.6.72,4.79,2.3l-2.34,1.3c-.76-1.04-1.53-1.33-2.43-1.33-1.35,0-2.02.5-2.02,1.39,0,.81.56,1.19,2.23,1.51,1.75.36,2.68.67,3.39,1.1,1.01.67,1.49,1.6,1.49,2.95,0,2.59-1.82,4.03-5.08,4.03-2.7,0-4.36-.95-5.37-3.08l2.48-1.06Z"/>
    <path d="M15.27,4.14v1.42c.72-1.12,1.64-1.66,2.88-1.66,2.3,0,3.83,1.96,3.83,4.92s-1.51,4.93-3.85,4.93c-1.28,0-2.25-.54-2.86-1.6v4.68h-2.75V4.14h2.75ZM15.19,8.86c0,1.76.72,2.76,2.02,2.76s1.96-.92,1.96-2.74-.68-2.83-1.98-2.83-2,1.04-2,2.81Z"/>
    <path d="M32.98,8.8c0,2.92-2,4.95-4.83,4.95s-4.81-2-4.81-4.86,2-4.99,4.88-4.99,4.75,2.05,4.75,4.9ZM26.15,8.82c0,1.8.7,2.79,2,2.79s2.02-.99,2.02-2.79-.7-2.77-2.03-2.77c-1.26,0-1.98,1.01-1.98,2.77Z"/>
    <path d="M35.39,4.14v-1.89l2.75-.95v2.84h1.98v2.14h-1.98v4.16c0,.7.25,1.03.79,1.03.32,0,.61-.09.95-.29l.67,1.84c-.65.5-1.35.74-2.25.74-1.85,0-2.92-1.08-2.92-2.97v-4.5h-1.3v-2.14h1.3Z"/>
    <path d="M47.54,13.22c-.5.45-1.57.59-2.48.59-1.94,0-2.92-.79-2.92-3.08V0h2.75v10.79c0,.61.31.88.83.88.31,0,.68-.09,1.1-.45l.72,2Z"/>
    <path d="M56.97,11.58c-.76,1.44-1.91,2.18-4.14,2.18-2.9,0-4.88-1.96-4.88-4.83s1.96-5.02,4.75-5.02,4.41,1.84,4.41,4.9v.74h-6.39c.09,1.44.95,2.18,2.23,2.18.77,0,1.55-.32,1.85-.97l2.16.83ZM54.43,7.87c-.14-1.35-.65-1.93-1.75-1.93s-1.66.59-1.91,1.93h3.66Z"/>
    <path d="M65.02,6.64c-.88-.43-1.73-.7-2.65-.7-.85,0-1.22.23-1.22.74,0,.56.32.72,1.85,1.01,1.08.18,1.66.36,2.18.68.83.49,1.22,1.24,1.22,2.27,0,1.98-1.51,3.12-4.14,3.12-1.82,0-2.99-.38-4.12-1.35l1.28-1.78c.86.79,1.66,1.1,2.77,1.1,1.01,0,1.55-.31,1.55-.9,0-.27-.11-.45-.34-.58-.25-.13-.34-.16-1.66-.41-2.2-.41-3.17-1.31-3.17-2.95,0-1.85,1.42-2.97,3.84-2.97,1.51,0,2.59.29,3.69.94l-1.08,1.8Z"/>
    <path d="M74.32,6.64c-.88-.43-1.73-.7-2.65-.7-.85,0-1.22.23-1.22.74,0,.56.32.72,1.85,1.01,1.08.18,1.66.36,2.18.68.83.49,1.22,1.24,1.22,2.27,0,1.98-1.51,3.12-4.14,3.12-1.82,0-2.99-.38-4.12-1.35l1.28-1.78c.86.79,1.66,1.1,2.77,1.1,1.01,0,1.55-.31,1.55-.9,0-.27-.11-.45-.34-.58-.25-.13-.34-.16-1.66-.41-2.2-.41-3.17-1.31-3.17-2.95,0-1.85,1.42-2.97,3.83-2.97,1.51,0,2.59.29,3.69.94l-1.08,1.8Z"/>
  </g>
  <path d="M90.34,6.54v2.25h-8.73v-2.25h8.73Z"/>
  <g>
    <path d="M3.64,30.89v2.67H.88v-13.56h2.75v7.81l2.95-3.67h2.99l-3.15,3.69,3.48,5.73h-3.06l-2.25-3.78-.95,1.12Z"/>
    <path d="M13.52,24.14l1.98,6.45,1.94-6.45h2.66l-3.22,9.42h-3.06l-3.26-9.42h2.95Z"/>
  </g>
  <g>
    <path d="M26.74,33.56c-.09-.23-.18-.65-.25-1.12-.67.88-1.53,1.31-2.68,1.31-1.78,0-2.94-1.04-2.94-2.67,0-2.16,1.76-3.21,5.51-3.24v-.25c0-1.04-.45-1.48-1.51-1.48-.9,0-1.71.27-2.66.92l-1.17-1.76c1.22-.95,2.5-1.37,4.23-1.37,1.48,0,2.5.38,3.17,1.17.52.63.72,1.35.72,2.57v4.27c0,.61.09,1.1.25,1.53v.11h-2.67ZM26.4,29.51c-1.98.04-2.83.43-2.83,1.33,0,.59.41.95,1.12.95,1.03,0,1.71-.59,1.71-1.46v-.83Z"/>
    <path d="M36.94,33.22c-.5.45-1.57.59-2.48.59-1.94,0-2.92-.79-2.92-3.08v-10.73h2.75v10.79c0,.61.31.88.83.88.31,0,.68-.09,1.1-.45l.72,2Z"/>
    <path d="M40.96,21.21c0,.85-.7,1.53-1.6,1.53s-1.58-.67-1.58-1.53.7-1.51,1.6-1.51,1.58.68,1.58,1.51ZM40.74,24.14v9.42h-2.75v-9.42h2.75Z"/>
    <path d="M43.8,24.14v-1.89l2.75-.95v2.84h1.98v2.14h-1.98v4.16c0,.7.25,1.03.79,1.03.32,0,.61-.09.95-.29l.67,1.84c-.65.5-1.35.74-2.25.74-1.85,0-2.92-1.08-2.92-2.97v-4.5h-1.3v-2.14h1.3Z"/>
  </g>
  <g>
    <path d="M58.8,31.58c-.76,1.44-1.91,2.18-4.14,2.18-2.9,0-4.88-1.96-4.88-4.83s1.96-5.02,4.75-5.02,4.41,1.84,4.41,4.9v.74h-6.39c.09,1.44.95,2.18,2.23,2.18.77,0,1.55-.32,1.85-.97l2.16.83ZM56.26,27.87c-.14-1.35-.65-1.93-1.75-1.93s-1.66.59-1.91,1.93h3.66Z"/>
    <path d="M61.22,24.14v-1.89l2.75-.95v2.84h1.98v2.14h-1.98v4.16c0,.7.25,1.03.79,1.03.32,0,.61-.09.95-.29l.67,1.84c-.65.5-1.35.74-2.25.74-1.85,0-2.92-1.08-2.92-2.97v-4.5h-1.3v-2.14h1.3Z"/>
  </g>
  <g>
    <path d="M78.55,32.06c-.61,1.12-1.57,1.69-2.84,1.69-2.36,0-3.85-1.91-3.85-4.92s1.51-4.93,3.85-4.93c1.3,0,2.21.52,2.84,1.62v-5.53h2.75v13.56h-2.75v-1.49ZM74.66,28.86c0,1.82.65,2.75,1.94,2.75s2.03-.99,2.03-2.75-.76-2.81-2.07-2.81c-1.22,0-1.91,1.01-1.91,2.81Z"/>
    <path d="M89.49,32.12c-.61,1.13-1.49,1.64-2.81,1.64-1.85,0-2.92-1.3-2.92-3.57v-6.05h2.75v5.73c0,1.19.4,1.73,1.28,1.73,1.06,0,1.69-.72,1.69-1.93v-5.53h2.75v9.42h-2.75v-1.44Z"/>
  </g>
  <path d="M101.96,30.89v2.67h-2.75v-13.56h2.75v7.81l2.95-3.67h2.99l-3.15,3.69,3.48,5.73h-3.06l-2.25-3.78-.95,1.12Z"/>
  <g>
    <path d="M114.75,33.56c-.09-.23-.18-.65-.25-1.12-.67.88-1.53,1.31-2.68,1.31-1.78,0-2.94-1.04-2.94-2.67,0-2.16,1.76-3.21,5.51-3.24v-.25c0-1.04-.45-1.48-1.51-1.48-.9,0-1.71.27-2.66.92l-1.17-1.76c1.22-.95,2.5-1.37,4.23-1.37,1.48,0,2.5.38,3.17,1.17.52.63.72,1.35.72,2.57v4.27c0,.61.09,1.1.25,1.53v.11h-2.67ZM114.41,29.51c-1.98.04-2.83.43-2.83,1.33,0,.59.41.95,1.12.95,1.03,0,1.71-.59,1.71-1.46v-.83Z"/>
    <path d="M122.31,24.14v1.48c.63-1.15,1.58-1.71,2.92-1.71,1.89,0,2.97,1.3,2.97,3.56v6.09h-2.75v-5.73c0-1.22-.45-1.78-1.42-1.78-1.08,0-1.71.72-1.71,1.96v5.55h-2.75v-9.42h2.75Z"/>
  </g>
  <g>
    <path d="M140.49,33.22c-.5.45-1.57.59-2.48.59-1.95,0-2.92-.79-2.92-3.08v-10.73h2.75v10.79c0,.61.31.88.83.88.31,0,.68-.09,1.1-.45l.72,2Z"/>
    <path d="M144.51,21.21c0,.85-.7,1.53-1.6,1.53s-1.58-.67-1.58-1.53.7-1.51,1.6-1.51,1.58.68,1.58,1.51ZM144.29,24.14v9.42h-2.75v-9.42h2.75Z"/>
    <path d="M147.35,24.14v-1.89l2.75-.95v2.84h1.98v2.14h-1.98v4.16c0,.7.25,1.03.79,1.03.32,0,.61-.09.96-.29l.67,1.84c-.65.5-1.35.74-2.25.74-1.85,0-2.92-1.08-2.92-2.97v-4.5h-1.3v-2.14h1.3Z"/>
    <path d="M159.34,33.56c-.09-.23-.18-.65-.25-1.12-.67.88-1.53,1.31-2.68,1.31-1.78,0-2.93-1.04-2.93-2.67,0-2.16,1.76-3.21,5.51-3.24v-.25c0-1.04-.45-1.48-1.51-1.48-.9,0-1.71.27-2.67.92l-1.17-1.76c1.22-.95,2.5-1.37,4.23-1.37,1.48,0,2.5.38,3.17,1.17.52.63.72,1.35.72,2.57v4.27c0,.61.09,1.1.25,1.53v.11h-2.67ZM159,29.51c-1.98.04-2.83.43-2.83,1.33,0,.59.41.95,1.12.95,1.03,0,1.71-.59,1.71-1.46v-.83Z"/>
  </g>
  <g>
    <path d="M171.35,24.14v1.42c.72-1.12,1.64-1.66,2.88-1.66,2.3,0,3.83,1.96,3.83,4.92s-1.51,4.93-3.85,4.93c-1.28,0-2.25-.54-2.86-1.6v4.68h-2.75v-12.69h2.75ZM171.28,28.86c0,1.76.72,2.75,2.02,2.75s1.96-.92,1.96-2.74-.68-2.83-1.98-2.83-2,1.04-2,2.81Z"/>
    <path d="M185.24,33.56c-.09-.23-.18-.65-.25-1.12-.67.88-1.53,1.31-2.68,1.31-1.78,0-2.93-1.04-2.93-2.67,0-2.16,1.76-3.21,5.51-3.24v-.25c0-1.04-.45-1.48-1.51-1.48-.9,0-1.71.27-2.67.92l-1.17-1.76c1.22-.95,2.5-1.37,4.23-1.37,1.48,0,2.5.38,3.17,1.17.52.63.72,1.35.72,2.57v4.27c0,.61.09,1.1.25,1.53v.11h-2.67ZM185.82,21.12c0,1.1-.88,1.96-2.03,1.96s-2.05-.85-2.05-1.96.88-1.95,2.07-1.95,2.02.85,2.02,1.95ZM184.9,29.51c-1.98.04-2.83.43-2.83,1.33,0,.59.41.95,1.12.95,1.03,0,1.71-.59,1.71-1.46v-.83ZM183.03,21.13c0,.43.31.76.76.76s.74-.32.74-.76-.31-.77-.76-.77-.74.32-.74.77Z"/>
    <path d="M193.18,32.05c0,.94-.76,1.69-1.69,1.69s-1.69-.74-1.69-1.69.76-1.69,1.71-1.69,1.67.77,1.67,1.69Z"/>
  </g>
</svg>