<?xml version="1.0" encoding="UTF-8"?>
<svg id="Lager_1" data-name="Lager 1" xmlns="http://www.w3.org/2000/svg" viewBox="0 0 305.69 40.96">
  <g>
    <path d="M6.82.76c3.04,0,4.68,1.32,4.68,3.78,0,1.54-.56,2.4-2.02,3.08,1.82.62,2.56,1.62,2.56,3.42,0,2.62-1.74,4.02-5,4.02H.36V.76h6.46ZM6.64,6.54c1.2,0,1.76-.54,1.76-1.68s-.6-1.66-1.9-1.66h-3v3.34h3.14ZM6.8,12.62c1.34,0,2.08-.68,2.08-1.92s-.76-1.88-2.2-1.88h-3.18v3.8h3.3Z"/>
    <path d="M24.22,9.78c0,3.24-2.22,5.5-5.36,5.5s-5.34-2.22-5.34-5.4,2.22-5.54,5.42-5.54,5.28,2.28,5.28,5.44ZM16.64,9.8c0,2,.78,3.1,2.22,3.1s2.24-1.1,2.24-3.1-.78-3.08-2.26-3.08c-1.4,0-2.2,1.12-2.2,3.08Z"/>
    <path d="M33.08,7.38c-.98-.48-1.92-.78-2.94-.78-.94,0-1.36.26-1.36.82,0,.62.36.8,2.06,1.12,1.2.2,1.84.4,2.42.76.92.54,1.36,1.38,1.36,2.52,0,2.2-1.68,3.46-4.6,3.46-2.02,0-3.32-.42-4.58-1.5l1.42-1.98c.96.88,1.84,1.22,3.08,1.22,1.12,0,1.72-.34,1.72-1,0-.3-.12-.5-.38-.64-.28-.14-.38-.18-1.84-.46-2.44-.46-3.52-1.46-3.52-3.28,0-2.06,1.58-3.3,4.26-3.3,1.68,0,2.88.32,4.1,1.04l-1.2,2Z"/>
    <path d="M45.82,12.7c-.78,1.68-2.16,2.58-4.36,2.58-3.34,0-5.38-2.12-5.38-5.38s2.08-5.56,5.16-5.56c2,0,3.38.72,4.32,2.14l-2.52,1.48c-.34-.8-.84-1.24-1.7-1.24-1.38,0-2.14,1.1-2.14,3.1s.76,3.08,2.24,3.08c1,0,1.5-.4,1.88-1.38l2.5,1.18Z"/>
    <path d="M50.62,0v6.24c.7-1.28,1.76-1.9,3.24-1.9,2.1,0,3.3,1.44,3.3,3.96v6.76h-3.06v-6.36c0-1.36-.5-1.98-1.56-1.98-1.22,0-1.92.8-1.92,2.18v6.16h-3.06V0h3.06Z"/>
  </g>
  <path d="M67.75,4.6v1.78c.68-1.38,1.52-2,2.7-2,.58,0,1.04.12,1.52.42l-.76,2.76c-.44-.26-.76-.36-1.26-.36-1.34,0-2.2,1-2.2,2.6v5.26h-3.06V4.6h3.06Z"/>
  <g>
    <path d="M83.19,9.78c0,3.24-2.22,5.5-5.36,5.5s-5.34-2.22-5.34-5.4,2.22-5.54,5.42-5.54,5.28,2.28,5.28,5.44ZM75.61,9.8c0,2,.78,3.1,2.22,3.1s2.24-1.1,2.24-3.1-.78-3.08-2.26-3.08c-1.4,0-2.2,1.12-2.2,3.08Z"/>
    <path d="M88.41,6.18c.8-1.24,1.82-1.84,3.2-1.84,2.54,0,4.26,2.18,4.26,5.46s-1.66,5.48-4.32,5.48c-1.4,0-2.48-.62-3.14-1.84v1.62h-3.06V0h3.06v6.18ZM88.33,9.84c0,1.96.8,3.06,2.24,3.06s2.18-1.02,2.18-3.04-.76-3.14-2.2-3.14-2.22,1.16-2.22,3.12Z"/>
    <path d="M108.09,9.78c0,3.24-2.22,5.5-5.36,5.5s-5.34-2.22-5.34-5.4,2.22-5.54,5.42-5.54,5.28,2.28,5.28,5.44ZM100.51,9.8c0,2,.78,3.1,2.22,3.1s2.24-1.1,2.24-3.1-.78-3.08-2.26-3.08c-1.4,0-2.2,1.12-2.2,3.08Z"/>
    <path d="M110.77,4.6v-2.1l3.06-1.06v3.16h2.2v2.38h-2.2v4.62c0,.78.28,1.14.88,1.14.36,0,.68-.1,1.06-.32l.74,2.04c-.72.56-1.5.82-2.5.82-2.06,0-3.24-1.2-3.24-3.3v-5h-1.44v-2.38h1.44Z"/>
  </g>
  <g>
    <path d="M125.06,7.38c-.98-.48-1.92-.78-2.94-.78-.94,0-1.36.26-1.36.82,0,.62.36.8,2.06,1.12,1.2.2,1.84.4,2.42.76.92.54,1.36,1.38,1.36,2.52,0,2.2-1.68,3.46-4.6,3.46-2.02,0-3.32-.42-4.58-1.5l1.42-1.98c.96.88,1.84,1.22,3.08,1.22,1.12,0,1.72-.34,1.72-1,0-.3-.12-.5-.38-.64-.28-.14-.38-.18-1.84-.46-2.44-.46-3.52-1.46-3.52-3.28,0-2.06,1.58-3.3,4.26-3.3,1.68,0,2.88.32,4.1,1.04l-1.2,2Z"/>
    <path d="M129.2,4.6v-2.1l3.06-1.06v3.16h2.2v2.38h-2.2v4.62c0,.78.28,1.14.88,1.14.36,0,.68-.1,1.06-.32l.74,2.04c-.72.56-1.5.82-2.5.82-2.06,0-3.24-1.2-3.24-3.3v-5h-1.44v-2.38h1.44Z"/>
    <path d="M137.06,13.3c-.7-.96-1.06-2.1-1.06-3.42,0-3.24,2.22-5.54,5.36-5.54,1.2,0,2.22.3,3.16.94l.64-.68h2.06l-1.62,1.74c.74.98,1.1,2.1,1.1,3.44,0,3.24-2.2,5.5-5.36,5.5-1.2,0-2.22-.3-3.18-.94l-.66.72h-2.08l1.64-1.76ZM142.78,7.14c-.36-.32-.86-.5-1.42-.5-1.48,0-2.3,1.12-2.3,3.12,0,.4.02.72.1,1.18l3.62-3.8ZM139.92,12.46c.4.36.84.52,1.42.52,1.46,0,2.3-1.14,2.3-3.14,0-.42-.04-.78-.12-1.26l-3.6,3.88Z"/>
    <path d="M150.8,4.6l2.2,7.16,2.16-7.16h2.96l-3.58,10.46h-3.4l-3.62-10.46h3.28Z"/>
    <path d="M166.3,7.38c-.98-.48-1.92-.78-2.94-.78-.94,0-1.36.26-1.36.82,0,.62.36.8,2.06,1.12,1.2.2,1.84.4,2.42.76.92.54,1.36,1.38,1.36,2.52,0,2.2-1.68,3.46-4.6,3.46-2.02,0-3.32-.42-4.58-1.5l1.42-1.98c.96.88,1.84,1.22,3.08,1.22,1.12,0,1.72-.34,1.72-1,0-.3-.12-.5-.38-.64-.28-.14-.38-.18-1.84-.46-2.44-.46-3.52-1.46-3.52-3.28,0-2.06,1.58-3.3,4.26-3.3,1.68,0,2.88.32,4.1,1.04l-1.2,2Z"/>
    <path d="M176.2,13.46c-.68,1.26-1.66,1.82-3.12,1.82-2.06,0-3.24-1.44-3.24-3.96v-6.72h3.06v6.36c0,1.32.44,1.92,1.42,1.92,1.18,0,1.88-.8,1.88-2.14v-6.14h3.06v10.46h-3.06v-1.6Z"/>
    <path d="M190.14,6.7c.18.52.24.82.24,1.24,0,1.98-1.74,3.32-4.36,3.32-.7,0-1.26-.08-1.9-.28-.28.2-.42.44-.42.72,0,.56.36.76,1.42.76h2.64c2.42,0,3.76,1.02,3.76,2.9,0,2.36-2.06,3.7-5.66,3.7-3.12,0-4.96-.98-4.96-2.68,0-.86.54-1.5,1.7-2-.8-.48-1.18-1.1-1.18-1.9,0-.92.48-1.6,1.48-2.12-.86-.68-1.26-1.46-1.26-2.48,0-2.06,1.82-3.54,4.32-3.54.98,0,1.8.22,2.7.7l2.82-.64v2.3h-1.34ZM184.9,14.92c-.38,0-.52,0-.7-.04-.44.3-.64.6-.64,1.02,0,.82.74,1.18,2.38,1.18,1.86,0,2.82-.44,2.82-1.32,0-.58-.42-.84-1.44-.84h-2.42ZM184.4,7.88c0,1.02.62,1.64,1.62,1.64s1.58-.62,1.58-1.64-.58-1.62-1.62-1.62c-.98,0-1.58.62-1.58,1.62Z"/>
    <path d="M202.76,12.86c-.84,1.6-2.12,2.42-4.6,2.42-3.22,0-5.42-2.18-5.42-5.36s2.18-5.58,5.28-5.58,4.9,2.04,4.9,5.44v.82h-7.1c.1,1.6,1.06,2.42,2.48,2.42.86,0,1.72-.36,2.06-1.08l2.4.92ZM199.94,8.74c-.16-1.5-.72-2.14-1.94-2.14s-1.84.66-2.12,2.14h4.06Z"/>
    <path d="M208.04,4.6v1.78c.68-1.38,1.52-2,2.7-2,.58,0,1.04.12,1.52.42l-.76,2.76c-.44-.26-.76-.36-1.26-.36-1.34,0-2.2,1-2.2,2.6v5.26h-3.06V4.6h3.06Z"/>
    <path d="M222.92,12.86c-.84,1.6-2.12,2.42-4.6,2.42-3.22,0-5.42-2.18-5.42-5.36s2.18-5.58,5.28-5.58,4.9,2.04,4.9,5.44v.82h-7.1c.1,1.6,1.06,2.42,2.48,2.42.86,0,1.72-.36,2.06-1.08l2.4.92ZM220.1,8.74c-.16-1.5-.72-2.14-1.94-2.14s-1.84.66-2.12,2.14h4.06Z"/>
    <path d="M228.62,13.38c0,1.04-.84,1.88-1.88,1.88s-1.88-.82-1.88-1.88.84-1.88,1.9-1.88,1.86.86,1.86,1.88Z"/>
  </g>
  <g>
    <path d="M8.46,25.84c-.7-1.54-1.64-1.88-3.42-1.88s-2.92.86-2.92,2.3c0,.82.3,1.34.98,1.74.56.32.98.46,2.48.8,1.8.4,2.76.78,3.52,1.38.86.7,1.32,1.7,1.32,2.92,0,2.52-1.96,4.14-5.02,4.14-2.7,0-4.62-1-5.4-3.22l1.48-.6c.58,1.82,1.86,2.44,3.92,2.44s3.4-1.04,3.4-2.72c0-.7-.24-1.28-.7-1.68-.56-.48-1.16-.7-3.18-1.2-1.64-.4-2.5-.74-3.22-1.28-.78-.58-1.2-1.5-1.2-2.6,0-2.34,1.74-3.8,4.52-3.8,2.38,0,3.92.62,4.8,2.56l-1.36.7Z"/>
    <path d="M13.86,26.6v-2.72l1.66-.4v3.12h2.64v1.38h-2.64v6.38c0,1.02.38,1.5,1.2,1.5.54,0,.94-.14,1.42-.5l.64,1.14c-.7.54-1.3.74-2.16.74-1.7,0-2.76-.98-2.76-2.56v-6.7h-1.6v-1.38h1.6Z"/>
  </g>
  <path d="M35.57,35.4c-.96,1.38-2.3,1.84-4.02,1.84s-3.02-.7-4-2.14c-1.04,1.52-2.16,2.14-3.9,2.14-2,0-3.34-1.16-3.34-2.9,0-1.42.92-2.48,2.6-3,.98-.32,1.84-.4,3.82-.44v-.74c0-1.6-.66-2.36-2.04-2.36-1.2,0-2.14.44-3.18,1.52l-.96-1.06c1.26-1.3,2.46-1.84,4.14-1.84s2.56.54,3.2,1.82c.92-1.24,2.02-1.82,3.46-1.82,2.68,0,4.36,2,4.36,5.18v.56h-7.32c.1,1.54.4,2.38,1.12,3,.54.46,1.2.7,2.04.7,1.16,0,2-.32,2.8-1.44l1.22.98ZM26.72,32.06c-3.38.02-4.8.68-4.8,2.24,0,1.02.7,1.6,1.94,1.6,1.66,0,2.86-.96,2.86-2.3v-1.54ZM34.01,30.82c-.1-.86-.16-1.2-.34-1.6-.44-.94-1.18-1.42-2.28-1.42-1.6,0-2.56.98-2.94,3.02h5.56Z"/>
  <g>
    <path d="M40.16,26.6v1.68c.68-1.26,1.58-1.86,2.8-1.86.64,0,1.14.12,1.7.42l-.68,1.4c-.46-.24-.74-.32-1.22-.32-1.62,0-2.6,1.3-2.6,3.4v5.74h-1.66v-10.46h1.66Z"/>
    <path d="M48.32,33.78v3.28h-1.66v-15.06h1.66v9.62l4.26-5.02h1.96l-3.56,4.1,4.08,6.36h-1.88l-3.28-5.1-1.58,1.82Z"/>
    <path d="M60.02,35.88c0,.7-.58,1.28-1.28,1.28s-1.28-.56-1.28-1.28.56-1.28,1.28-1.28,1.28.58,1.28,1.28Z"/>
  </g>
  <path d="M73.75,22.76c1.8,0,2.9.32,3.74,1.08.82.72,1.24,1.78,1.24,3.1,0,2.6-1.68,4.06-4.66,4.06h-3.74v6.06h-1.66v-14.3h5.08ZM73.87,29.66c1.18,0,1.86-.2,2.4-.72.5-.48.76-1.18.76-2.08,0-1.86-.98-2.72-3.06-2.72h-3.64v5.52h3.54Z"/>
  <g>
    <path d="M90.07,37.12c-.22.02-.42.02-.58.02-1.12,0-1.84-.5-2.16-1.5-.92,1.1-1.92,1.6-3.22,1.6-1.94,0-3.3-1.2-3.3-2.88,0-1.54,1.02-2.64,2.88-3.14.98-.26,1.74-.34,3.54-.4v-.66c0-1.62-.64-2.36-2.06-2.36-1.1,0-1.92.36-3,1.3l-.98-1.08c1.26-1.14,2.4-1.6,3.98-1.6,2.4,0,3.72,1.32,3.72,3.74v4.66c0,.74.28.98,1.18,1v1.3ZM87.23,32c-3.36.12-4.76.78-4.76,2.28,0,1.04.68,1.62,1.92,1.62,1.66,0,2.84-.96,2.84-2.3v-1.6ZM87.33,23.22c0,1.14-.94,2.08-2.12,2.08s-2.12-.92-2.12-2.08.94-2.08,2.14-2.08,2.1.94,2.1,2.08ZM84.09,23.22c0,.64.48,1.12,1.12,1.12s1.12-.48,1.12-1.12-.48-1.12-1.12-1.12-1.12.48-1.12,1.12Z"/>
    <path d="M96.93,36.74c-.5.3-1.02.48-1.84.48-1.52,0-2.54-.68-2.54-2.76v-12.46h1.66v12.6c0,.98.52,1.24,1.14,1.24.48,0,.78-.14,1.04-.34l.54,1.24Z"/>
    <path d="M100.67,23.34c0,.6-.5,1.1-1.1,1.1s-1.1-.5-1.1-1.1.5-1.1,1.1-1.1,1.1.5,1.1,1.1ZM100.43,26.6v10.46h-1.66v-10.46h1.66Z"/>
    <path d="M111.43,35.38c-.78,1.22-1.96,1.86-3.46,1.86-2.72,0-4.48-2.14-4.48-5.46s1.78-5.36,4.46-5.36c1.48,0,2.68.66,3.48,1.9v-6.32h1.66v15.06h-1.66v-1.68ZM105.21,31.88c0,2.64,1,3.98,3,3.98,2.1,0,3.28-1.46,3.28-4.02s-1.22-4.04-3.22-4.04-3.06,1.48-3.06,4.08Z"/>
    <path d="M125.29,35.4c-.96,1.38-2.3,1.84-3.98,1.84-3.32,0-5.18-2.18-5.18-5.38s1.94-5.44,4.76-5.44,4.48,1.96,4.48,5.2v.54h-7.52c.04,1.5.38,2.34,1.1,3,.54.48,1.24.7,2.32.7,1.16,0,2-.32,2.8-1.44l1.22.98ZM123.67,30.82c-.22-2.14-1.02-3.02-2.76-3.02s-2.62.98-3,3.02h5.76Z"/>
    <path d="M132.71,36.74c-.5.3-1.02.48-1.84.48-1.52,0-2.54-.68-2.54-2.76v-12.46h1.66v12.6c0,.98.52,1.24,1.14,1.24.48,0,.78-.14,1.04-.34l.54,1.24Z"/>
    <path d="M136.45,23.34c0,.6-.5,1.1-1.1,1.1s-1.1-.5-1.1-1.1.5-1.1,1.1-1.1,1.1.5,1.1,1.1ZM136.21,26.6v10.46h-1.66v-10.46h1.66Z"/>
  </g>
  <g>
    <path d="M144.57,34.78c2.36,0,3.68,1.02,3.68,2.82,0,2.06-1.9,3.36-4.94,3.36-2.82,0-4.62-1.12-4.62-2.88,0-.94.58-1.68,1.78-2.24-.7-.38-1.02-.92-1.02-1.68s.36-1.32,1.14-1.78c-.86-.7-1.28-1.52-1.28-2.56,0-2.02,1.56-3.4,3.84-3.4.78,0,1.36.12,2.08.44l3-.42v1.5h-1.56c.48.62.68,1.22.68,2,0,2.06-1.52,3.32-3.96,3.32-.72,0-1.28-.1-1.9-.36-.38.32-.54.6-.54.98,0,.68.38.9,1.54.9h2.08ZM142.29,36.22c-.16,0-.5-.02-.66-.04-.92.46-1.32,1-1.32,1.74,0,1.14,1.02,1.72,3.04,1.72,2.16,0,3.28-.68,3.28-1.96,0-.98-.7-1.46-2.08-1.46h-2.26ZM140.97,29.82c0,1.3.92,2.12,2.42,2.12s2.3-.74,2.3-2.08-.92-2.12-2.38-2.12-2.34.78-2.34,2.08Z"/>
    <path d="M153.21,35.88c0,.7-.58,1.28-1.28,1.28s-1.28-.56-1.28-1.28.56-1.28,1.28-1.28,1.28.58,1.28,1.28Z"/>
  </g>
  <path d="M163.52,22.76v7.26l6.36-7.26h1.92l-5.26,5.94,5.52,8.36h-1.86l-4.72-7.18-1.96,2.22v4.96h-1.66v-14.3h1.66Z"/>
  <g>
    <path d="M178.86,36.74c-.5.3-1.02.48-1.84.48-1.52,0-2.54-.68-2.54-2.76v-12.46h1.66v12.6c0,.98.52,1.24,1.14,1.24.48,0,.78-.14,1.04-.34l.54,1.24Z"/>
    <path d="M189.06,37.12c-.22.02-.42.02-.58.02-1.12,0-1.84-.5-2.16-1.5-.92,1.1-1.92,1.6-3.22,1.6-1.94,0-3.3-1.2-3.3-2.88,0-1.54,1.02-2.64,2.88-3.14.98-.26,1.74-.34,3.54-.4v-.66c0-1.62-.64-2.36-2.06-2.36-1.1,0-1.92.36-3,1.3l-.98-1.08c1.26-1.14,2.4-1.6,3.98-1.6,2.4,0,3.72,1.32,3.72,3.74v4.66c0,.74.28.98,1.18,1v1.3ZM186.22,32c-3.36.12-4.76.78-4.76,2.28,0,1.04.68,1.62,1.92,1.62,1.66,0,2.84-.96,2.84-2.3v-1.6Z"/>
    <path d="M193.2,26.6v1.68c.68-1.26,1.58-1.86,2.8-1.86.64,0,1.14.12,1.7.42l-.68,1.4c-.46-.24-.74-.32-1.22-.32-1.62,0-2.6,1.3-2.6,3.4v5.74h-1.66v-10.46h1.66Z"/>
  </g>
  <g>
    <path d="M207.57,35.4c-.96,1.38-2.3,1.84-3.98,1.84-3.32,0-5.18-2.18-5.18-5.38s1.94-5.44,4.76-5.44,4.48,1.96,4.48,5.2v.54h-7.52c.04,1.5.38,2.34,1.1,3,.54.48,1.24.7,2.32.7,1.16,0,2-.32,2.8-1.44l1.22.98ZM205.95,30.82c-.22-2.14-1.02-3.02-2.76-3.02s-2.62.98-3,3.02h5.76Z"/>
    <path d="M212.26,26.6v1.68c.68-1.26,1.58-1.86,2.8-1.86.64,0,1.14.12,1.7.42l-.68,1.4c-.46-.24-.74-.32-1.22-.32-1.62,0-2.6,1.3-2.6,3.4v5.74h-1.66v-10.46h1.66Z"/>
  </g>
  <g>
    <path d="M231.96,37.12c-.22.02-.42.02-.58.02-1.12,0-1.84-.5-2.16-1.5-.92,1.1-1.92,1.6-3.22,1.6-1.94,0-3.3-1.2-3.3-2.88,0-1.54,1.02-2.64,2.88-3.14.98-.26,1.74-.34,3.54-.4v-.66c0-1.62-.64-2.36-2.06-2.36-1.1,0-1.92.36-3,1.3l-.98-1.08c1.26-1.14,2.4-1.6,3.98-1.6,2.4,0,3.72,1.32,3.72,3.74v4.66c0,.74.28.98,1.18,1v1.3ZM229.12,32c-3.36.12-4.76.78-4.76,2.28,0,1.04.68,1.62,1.92,1.62,1.66,0,2.84-.96,2.84-2.3v-1.6Z"/>
    <path d="M236.09,26.6v1.68c.68-1.26,1.58-1.86,2.8-1.86.64,0,1.14.12,1.7.42l-.68,1.4c-.46-.24-.74-.32-1.22-.32-1.62,0-2.6,1.3-2.6,3.4v5.74h-1.66v-10.46h1.66Z"/>
    <path d="M244.11,28.32c.8-1.24,2-1.9,3.48-1.9,2.68,0,4.46,2.12,4.46,5.36s-1.76,5.46-4.48,5.46c-1.5,0-2.7-.64-3.46-1.86v1.68h-1.66v-15.06h1.66v6.32ZM244.05,31.84c0,2.56,1.18,4.02,3.24,4.02s3.04-1.32,3.04-3.98-1.12-4.08-3.02-4.08c-2.04,0-3.26,1.52-3.26,4.04Z"/>
    <path d="M263.38,35.4c-.96,1.38-2.3,1.84-3.98,1.84-3.32,0-5.18-2.18-5.18-5.38s1.94-5.44,4.76-5.44,4.48,1.96,4.48,5.2v.54h-7.52c.04,1.5.38,2.34,1.1,3,.54.48,1.24.7,2.32.7,1.16,0,2-.32,2.8-1.44l1.22.98ZM261.75,30.82c-.22-2.14-1.02-3.02-2.76-3.02s-2.62.98-3,3.02h5.76Z"/>
  </g>
  <g>
    <path d="M267.93,37.98c0,1.88-.96,2.88-2.72,2.88-.54,0-.88-.08-1.34-.32l.38-1.26c.4.18.5.2.78.2.82,0,1.24-.44,1.24-1.32v-11.56h1.66v11.38ZM268.17,23.34c0,.6-.5,1.1-1.1,1.1s-1.1-.5-1.1-1.1.5-1.1,1.1-1.1,1.1.5,1.1,1.1Z"/>
    <path d="M278.93,35.38c-.78,1.22-1.96,1.86-3.46,1.86-2.72,0-4.48-2.14-4.48-5.46s1.78-5.36,4.46-5.36c1.48,0,2.68.66,3.48,1.9v-6.32h1.66v15.06h-1.66v-1.68ZM272.71,31.88c0,2.64,1,3.98,3,3.98,2.1,0,3.28-1.46,3.28-4.02s-1.22-4.04-3.22-4.04-3.06,1.48-3.06,4.08Z"/>
    <path d="M292.79,35.4c-.96,1.38-2.3,1.84-3.98,1.84-3.32,0-5.18-2.18-5.18-5.38s1.94-5.44,4.76-5.44,4.48,1.96,4.48,5.2v.54h-7.52c.04,1.5.38,2.34,1.1,3,.54.48,1.24.7,2.32.7,1.16,0,2-.32,2.8-1.44l1.22.98ZM291.17,30.82c-.22-2.14-1.02-3.02-2.76-3.02s-2.62.98-3,3.02h5.76Z"/>
  </g>
  <g>
    <path d="M295.91,26.6v-2.72l1.66-.4v3.12h2.64v1.38h-2.64v6.38c0,1.02.38,1.5,1.2,1.5.54,0,.94-.14,1.42-.5l.64,1.14c-.7.54-1.3.74-2.16.74-1.7,0-2.76-.98-2.76-2.56v-6.7h-1.6v-1.38h1.6Z"/>
    <path d="M305.69,35.88c0,.7-.58,1.28-1.28,1.28s-1.28-.56-1.28-1.28.56-1.28,1.28-1.28,1.28.58,1.28,1.28Z"/>
  </g>
</svg>